<?xml version="1.0" encoding="UTF-8" standalone="no"?>
<!-- Created with Inkscape (http://www.inkscape.org/) -->

<svg
   xmlns:dc="http://purl.org/dc/elements/1.1/"
   xmlns:cc="http://creativecommons.org/ns#"
   xmlns:rdf="http://www.w3.org/1999/02/22-rdf-syntax-ns#"
   xmlns:svg="http://www.w3.org/2000/svg"
   xmlns="http://www.w3.org/2000/svg"
   xmlns:sodipodi="http://sodipodi.sourceforge.net/DTD/sodipodi-0.dtd"
   xmlns:inkscape="http://www.inkscape.org/namespaces/inkscape"
   width="500.19998"
   height="500.20001"
   viewBox="0 0 132.34458 132.34459"
   version="1.1"
   id="svg6357"
   inkscape:version="0.92.3 (2405546, 2018-03-11)"
   sodipodi:docname="DistAmbDGT_0-Emisiones.svg">
  <title
     id="title7049">DistAmbDGT_CeroEmisiones</title>
  <defs
     id="defs6351" />
  <sodipodi:namedview
     id="base"
     pagecolor="#ffffff"
     bordercolor="#666666"
     borderopacity="1.0"
     inkscape:pageopacity="0.0"
     inkscape:pageshadow="2"
     inkscape:zoom="0.70710678"
     inkscape:cx="258.95051"
     inkscape:cy="246.46975"
     inkscape:document-units="mm"
     inkscape:current-layer="g6349"
     showgrid="false"
     fit-margin-left="0.1"
     fit-margin-top="0.1"
     fit-margin-right="0.1"
     fit-margin-bottom="0.1"
     units="px"
     inkscape:window-width="1366"
     inkscape:window-height="705"
     inkscape:window-x="-8"
     inkscape:window-y="-8"
     inkscape:window-maximized="1"
     showguides="false" />
  <metadata
     id="metadata6354">
    <rdf:RDF>
      <cc:Work
         rdf:about="">
        <dc:format>image/svg+xml</dc:format>
        <dc:type
           rdf:resource="http://purl.org/dc/dcmitype/StillImage" />
        <dc:title>DistAmbDGT_CeroEmisiones</dc:title>
        <cc:license
           rdf:resource="http://creativecommons.org/licenses/by-sa/4.0/" />
        <dc:date>10/10/2018</dc:date>
        <dc:creator>
          <cc:Agent>
            <dc:title>DGT</dc:title>
          </cc:Agent>
        </dc:creator>
        <dc:publisher>
          <cc:Agent>
            <dc:title>CMetalCore</dc:title>
          </cc:Agent>
        </dc:publisher>
      </cc:Work>
      <cc:License
         rdf:about="http://creativecommons.org/licenses/by-sa/4.0/">
        <cc:permits
           rdf:resource="http://creativecommons.org/ns#Reproduction" />
        <cc:permits
           rdf:resource="http://creativecommons.org/ns#Distribution" />
        <cc:requires
           rdf:resource="http://creativecommons.org/ns#Notice" />
        <cc:requires
           rdf:resource="http://creativecommons.org/ns#Attribution" />
        <cc:permits
           rdf:resource="http://creativecommons.org/ns#DerivativeWorks" />
        <cc:requires
           rdf:resource="http://creativecommons.org/ns#ShareAlike" />
      </cc:License>
    </rdf:RDF>
  </metadata>
  <g
     inkscape:label="Capa 1"
     inkscape:groupmode="layer"
     id="layer1"
     transform="translate(621.85433,-70.405056)">
    <g
       id="g6349"
       transform="matrix(1.5823351,0,0,1.5823351,454.76978,-369.34137)">
      <g
         id="g11155">
        <circle
           style="opacity:1;fill:#016c9a;fill-opacity:1;fill-rule:nonzero;stroke:none;stroke-width:0.33513951;stroke-linecap:butt;stroke-linejoin:miter;stroke-miterlimit:4;stroke-dasharray:none;stroke-dashoffset:0;stroke-opacity:1;paint-order:fill markers stroke"
           id="circle13317"
           cx="-638.5827"
           cy="319.72919"
           r="41.80267" />
        <rect
           style="opacity:1;fill:#ffffff;fill-opacity:1;fill-rule:nonzero;stroke:none;stroke-width:0.22676054;stroke-linecap:butt;stroke-linejoin:miter;stroke-miterlimit:4;stroke-dasharray:none;stroke-dashoffset:0;stroke-opacity:1;paint-order:fill markers stroke"
           id="rect13321"
           width="20.823902"
           height="20.84285"
           x="-634.23163"
           y="292.40607" />
        <rect
           style="opacity:1;fill:#ffffff;fill-opacity:1;fill-rule:nonzero;stroke:none;stroke-width:0.22462915;stroke-linecap:butt;stroke-linejoin:miter;stroke-miterlimit:4;stroke-dasharray:none;stroke-dashoffset:0;stroke-opacity:1;paint-order:fill markers stroke"
           id="rect13323"
           width="8.7311249"
           height="42.928139"
           x="-665.61908"
           y="292.39664" />
        <g
           id="flowRoot13333"
           style="font-style:normal;font-weight:normal;font-size:40px;line-height:125%;font-family:sans-serif;letter-spacing:0px;word-spacing:4.26000023px;opacity:0.5;fill:#000000;fill-opacity:1;stroke:none;stroke-width:1px;stroke-linecap:butt;stroke-linejoin:miter;stroke-opacity:1"
           transform="matrix(0,-0.11634507,0.11634507,0,-717.99463,263.45113)"
           aria-label="16MZ-00000000">
          <path
             id="path11040"
             style="font-style:normal;font-variant:normal;font-weight:normal;font-stretch:normal;font-family:HelvLight;-inkscape-font-specification:HelvLight;letter-spacing:0.98024142px"
             d="m -569.22719,436.12017 h -2.56 v -20.96 h -7.28 v -1.68 q 3.96,0 5.56,-1.2 1.64,-1.2 2.24,-4.36 h 2.04 z" />
          <path
             id="path11042"
             style="font-style:normal;font-variant:normal;font-weight:normal;font-stretch:normal;font-family:HelvLight;-inkscape-font-specification:HelvLight;letter-spacing:0.98024142px"
             d="m -540.06132,427.52017 q 0,4.32 -2.4,6.76 -2.36,2.4 -6.56,2.4 -4.76,0 -7.24,-3.12 -2.72,-3.4 -2.72,-10.48 0,-6.08 1.92,-9.92 2.6,-5.24 8.32,-5.24 3.28,0 5.4,1.6 2.4,1.84 2.84,5.32 h -2.64 q -0.44,-2.16 -1.68,-3.4 -1.4,-1.36 -3.68,-1.36 -4.28,0 -6.24,3.72 -1.68,3.2 -1.68,9.04 1.52,-2.24 3.2,-3.32 1.72,-1.08 4.08,-1.08 4.32,0 6.68,2.4 2.4,2.36 2.4,6.68 z m -2.56,-0.16 q 0,-3.16 -1.52,-4.88 -1.64,-1.88 -4.88,-1.88 -2.96,0 -4.72,2.04 -1.72,2.04 -1.72,4.92 0,2.92 1.56,4.84 1.72,2.12 4.88,2.12 3.04,0 4.72,-1.96 1.68,-2 1.68,-5.2 z" />
          <path
             id="path11044"
             style="font-style:normal;font-variant:normal;font-weight:normal;font-stretch:normal;font-family:HelvLight;-inkscape-font-specification:HelvLight;letter-spacing:0.98024142px"
             d="m -507.17545,436.12017 h -2.72 v -25.68 l -9.52,25.68 h -2.56 l -9.48,-25.68 -0.08,25.68 h -2.72 v -28.8 h 4.16 l 9.44,25.4 9.36,-25.4 h 4.12 z" />
          <path
             id="path11046"
             style="font-style:normal;font-variant:normal;font-weight:normal;font-stretch:normal;font-family:HelvLight;-inkscape-font-specification:HelvLight;letter-spacing:0.98024142px"
             d="m -479.87584,436.12017 h -21.92 v -2.28 l 18.44,-24.2 h -16.88 v -2.32 h 20.24 v 2.28 l -18.44,24.2 h 18.56 z" />
          <path
             id="path11048"
             style="font-style:normal;font-variant:normal;font-weight:normal;font-stretch:normal;font-family:HelvLight;-inkscape-font-specification:HelvLight;letter-spacing:0.98024142px"
             d="m -465.88247,426.96017 h -10.12 v -2.48 h 10.12 z" />
          <path
             id="path11050"
             style="letter-spacing:-0.10318331px"
             d="m -442.62286,422.56017 q 0,6.44 -1.8,9.8 -2.32,4.32 -7.68,4.32 -5.4,0 -7.72,-4.24 -1.88,-3.44 -1.88,-10.16 0,-6.52 1.72,-9.88 2.32,-4.48 7.84,-4.48 5.52,0 7.8,4.6 1.72,3.44 1.72,10.04 z m -2.56,-0.36 q 0,-5.72 -1.4,-8.6 -1.72,-3.52 -5.64,-3.52 -3.76,0 -5.48,3.68 -1.44,3.08 -1.44,8.8 0,5.36 1.2,8.12 1.68,3.84 5.8,3.84 4.12,0 5.76,-4 1.2,-2.88 1.2,-8.32 z" />
          <path
             id="path11052"
             style="letter-spacing:-0.10318331px"
             d="m -420.46042,422.56017 q 0,6.44 -1.8,9.8 -2.32,4.32 -7.68,4.32 -5.4,0 -7.72,-4.24 -1.88,-3.44 -1.88,-10.16 0,-6.52 1.72,-9.88 2.32,-4.48 7.84,-4.48 5.52,0 7.8,4.6 1.72,3.44 1.72,10.04 z m -2.56,-0.36 q 0,-5.72 -1.4,-8.6 -1.72,-3.52 -5.64,-3.52 -3.76,0 -5.48,3.68 -1.44,3.08 -1.44,8.8 0,5.36 1.2,8.12 1.68,3.84 5.8,3.84 4.12,0 5.76,-4 1.2,-2.88 1.2,-8.32 z" />
          <path
             id="path11054"
             style="letter-spacing:-0.10318331px"
             d="m -398.29797,422.56017 q 0,6.44 -1.8,9.8 -2.32,4.32 -7.68,4.32 -5.4,0 -7.72,-4.24 -1.88,-3.44 -1.88,-10.16 0,-6.52 1.72,-9.88 2.32,-4.48 7.84,-4.48 5.52,0 7.8,4.6 1.72,3.44 1.72,10.04 z m -2.56,-0.36 q 0,-5.72 -1.4,-8.6 -1.72,-3.52 -5.64,-3.52 -3.76,0 -5.48,3.68 -1.44,3.08 -1.44,8.8 0,5.36 1.2,8.12 1.68,3.84 5.8,3.84 4.12,0 5.76,-4 1.2,-2.88 1.2,-8.32 z" />
          <path
             id="path11056"
             style="letter-spacing:-0.10318331px"
             d="m -376.13553,422.56017 q 0,6.44 -1.8,9.8 -2.32,4.32 -7.68,4.32 -5.4,0 -7.72,-4.24 -1.88,-3.44 -1.88,-10.16 0,-6.52 1.72,-9.88 2.32,-4.48 7.84,-4.48 5.52,0 7.8,4.6 1.72,3.44 1.72,10.04 z m -2.56,-0.36 q 0,-5.72 -1.4,-8.6 -1.72,-3.52 -5.64,-3.52 -3.76,0 -5.48,3.68 -1.44,3.08 -1.44,8.8 0,5.36 1.2,8.12 1.68,3.84 5.8,3.84 4.12,0 5.76,-4 1.2,-2.88 1.2,-8.32 z" />
          <path
             id="path11058"
             style="letter-spacing:-0.10318331px"
             d="m -353.97308,422.56017 q 0,6.44 -1.8,9.8 -2.32,4.32 -7.68,4.32 -5.4,0 -7.72,-4.24 -1.88,-3.44 -1.88,-10.16 0,-6.52 1.72,-9.88 2.32,-4.48 7.84,-4.48 5.52,0 7.8,4.6 1.72,3.44 1.72,10.04 z m -2.56,-0.36 q 0,-5.72 -1.4,-8.6 -1.72,-3.52 -5.64,-3.52 -3.76,0 -5.48,3.68 -1.44,3.08 -1.44,8.8 0,5.36 1.2,8.12 1.68,3.84 5.8,3.84 4.12,0 5.76,-4 1.2,-2.88 1.2,-8.32 z" />
          <path
             id="path11060"
             style="letter-spacing:-0.10318331px"
             d="m -331.81065,422.56017 q 0,6.44 -1.8,9.8 -2.32,4.32 -7.68,4.32 -5.4,0 -7.72,-4.24 -1.88,-3.44 -1.88,-10.16 0,-6.52 1.72,-9.88 2.32,-4.48 7.84,-4.48 5.52,0 7.8,4.6 1.72,3.44 1.72,10.04 z m -2.56,-0.36 q 0,-5.72 -1.4,-8.6 -1.72,-3.52 -5.64,-3.52 -3.76,0 -5.48,3.68 -1.44,3.08 -1.44,8.8 0,5.36 1.2,8.12 1.68,3.84 5.8,3.84 4.12,0 5.76,-4 1.2,-2.88 1.2,-8.32 z" />
          <path
             id="path11062"
             style="letter-spacing:-0.10318331px"
             d="m -309.64821,422.56017 q 0,6.44 -1.8,9.8 -2.32,4.32 -7.68,4.32 -5.4,0 -7.72,-4.24 -1.88,-3.44 -1.88,-10.16 0,-6.52 1.72,-9.88 2.32,-4.48 7.84,-4.48 5.52,0 7.8,4.6 1.72,3.44 1.72,10.04 z m -2.56,-0.36 q 0,-5.72 -1.4,-8.6 -1.72,-3.52 -5.64,-3.52 -3.76,0 -5.48,3.68 -1.44,3.08 -1.44,8.8 0,5.36 1.2,8.12 1.68,3.84 5.8,3.84 4.12,0 5.76,-4 1.2,-2.88 1.2,-8.32 z" />
          <path
             id="path11064"
             style="letter-spacing:-0.10318331px"
             d="m -287.48576,422.56017 q 0,6.44 -1.8,9.8 -2.32,4.32 -7.68,4.32 -5.4,0 -7.72,-4.24 -1.88,-3.44 -1.88,-10.16 0,-6.52 1.72,-9.88 2.32,-4.48 7.84,-4.48 5.52,0 7.8,4.6 1.72,3.44 1.72,10.04 z m -2.56,-0.36 q 0,-5.72 -1.4,-8.6 -1.72,-3.52 -5.64,-3.52 -3.76,0 -5.48,3.68 -1.44,3.08 -1.44,8.8 0,5.36 1.2,8.12 1.68,3.84 5.8,3.84 4.12,0 5.76,-4 1.2,-2.88 1.2,-8.32 z" />
        </g>
        <rect
           style="opacity:1;fill:#ffffff;fill-opacity:1;fill-rule:nonzero;stroke:none;stroke-width:0.23115259;stroke-linecap:butt;stroke-linejoin:miter;stroke-miterlimit:4;stroke-dasharray:none;stroke-dashoffset:0;stroke-opacity:1;paint-order:fill markers stroke"
           id="rect13401"
           width="24.585865"
           height="18.858095"
           x="-634.23163"
           y="316.43399" />
        <rect
           style="opacity:1;fill:#b3b3b3;fill-opacity:1;fill-rule:nonzero;stroke:none;stroke-width:0.22597186;stroke-linecap:butt;stroke-linejoin:miter;stroke-miterlimit:4;stroke-dasharray:none;stroke-dashoffset:0;stroke-opacity:1;paint-order:fill markers stroke"
           id="rect13403"
           width="32.035202"
           height="15.878461"
           x="-654.60034"
           y="338.03284" />
        <path
           sodipodi:nodetypes="cscscc"
           style="opacity:0.5;fill:#ffffff;fill-opacity:1;fill-rule:nonzero;stroke:none;stroke-width:0.2272395;stroke-linecap:butt;stroke-linejoin:miter;stroke-miterlimit:4;stroke-dasharray:none;stroke-dashoffset:0;stroke-opacity:1;paint-order:fill markers stroke"
           d="m -662.64612,353.91129 c 3.52815,2.47553 7.36243,4.37669 11.41755,5.66191 4.05512,1.28522 8.33108,1.95449 12.64581,1.95866 4.30664,-0.009 8.56664,-0.66702 12.62545,-1.95218 4.05881,-1.28517 7.91644,-3.19748 11.43798,-5.66839 z"
           id="path13405"
           inkscape:connector-curvature="0" />
        <path
           inkscape:connector-curvature="0"
           id="path13407"
           d="m -646.99015,340.14282 c -0.12292,0.41593 -0.23824,0.83403 -0.35729,1.25108 -0.26694,0.94502 -0.31754,1.08955 -0.4357,1.24486 -0.0922,0.12112 -0.30189,0.26529 -0.46757,0.32135 -0.14639,0.0496 -0.15828,0.05 -1.81638,0.0612 l -1.66897,0.0113 -0.38863,1.45038 h 2.90573 c 2.47978,0 2.97241,-0.006 3.18658,-0.0333 0.98291,-0.12885 1.78941,-0.59239 2.31424,-1.33027 0.24975,-0.35113 0.32362,-0.53707 0.71094,-1.78741 0.1954,-0.63079 0.35993,-1.18919 0.34829,-1.18919 h -2.16205 z m 6.90232,2.88971 -0.0551,0.18269 c -0.0303,0.10048 -0.41003,1.41331 -0.84363,2.91742 l -0.80234,2.78322 v 10e-5 l 1.56018,4.1e-4 c 1.68328,0 1.55304,0.0308 2.04189,-0.12929 0.27052,-0.0886 0.7041,-0.3292 0.94172,-0.52252 0.15784,-0.12843 0.41414,-0.39884 0.52695,-0.55594 0.28646,-0.39892 0.52915,-0.99954 0.7352,-1.81963 0.44551,-1.77315 0.15471,-2.68173 -1.13648,-2.83997 -0.17486,-0.0141 -0.7998,-0.0164 -1.63564,-0.0164 z m 11.13978,0 c -0.23083,0 -0.62143,0.14221 -0.62143,1.10718 h 0.95233 0.96568 l -0.0153,0.0609 c -0.0204,0.0814 -1.33573,4.58337 -1.36183,4.66118 l -0.0204,0.0609 h 0.60245 0.60246 l 0.66104,-2.28085 c 0.36356,-1.25447 0.6756,-2.33064 0.69344,-2.39149 l 0.0324,-0.11062 h 0.86098 0.86096 l 0.29667,-1.10718 h -2.03795 z m -1.13295,0.006 -1.33484,4.1e-4 c -1.14896,0.008 -1.35566,0.0142 -1.48915,0.0462 -0.77051,0.18411 -1.28996,0.5783 -1.61468,1.22535 -0.0785,0.15631 -1.00083,3.29677 -1.07096,3.64634 -0.0294,0.14677 -0.0307,0.19923 -0.008,0.33152 0.0554,0.32313 0.26063,0.52556 0.60974,0.6015 0.20202,0.0439 2.31456,0.0453 2.54147,0.002 0.34113,-0.0656 0.61295,-0.20553 0.83954,-0.43209 0.26263,-0.26259 0.28952,-0.32672 0.63883,-1.52097 0.17139,-0.58596 0.31344,-1.08826 0.31344,-1.08826 -0.91521,-5.4e-4 -0.41284,-0.005 -0.91523,-5.4e-4 -0.30411,3.1e-4 2e-5,3e-5 -0.91295,5.4e-4 -0.25133,0 -0.43338,0.30285 -0.51745,0.52087 -0.0384,0.0995 -0.0774,0.22665 -0.0774,0.22665 h 0.52941 c 0.11109,-6e-5 -1e-5,0 0.52169,0 -0.27664,0.93107 -0.45261,1.22897 -0.74462,1.22897 l -0.79689,-0.007 c -0.43831,-0.004 -0.79886,-0.009 -0.80123,-0.0115 -0.002,-0.002 0.18937,-0.68132 0.42611,-1.50877 0.46336,-1.61954 0.4775,-1.65818 0.67174,-1.83016 0.1138,-0.10077 0.31212,-0.20197 0.50027,-0.25532 0.11277,-0.032 0.2852,-0.0396 1.14039,-0.0503 l 1.0075,-0.0126 c 0.33684,-0.0193 0.54325,-0.52269 0.54325,-1.11231 z m -8.13595,1.10439 c 0.57739,-10e-4 0.70382,0.02 0.89007,0.11032 0.40039,0.1941 0.46148,0.69918 0.204,1.68705 -0.1996,0.76589 -0.40627,1.19911 -0.70752,1.48329 -0.2631,0.2482 -0.54559,0.35041 -1.08051,0.3909 -0.35029,0.0265 -1.37891,0.0315 -1.37889,0.007 0,-0.009 0.2379,-0.83867 0.5286,-1.84343 l 0.52857,-1.82681 0.73914,-0.006 c 0.10237,-10e-4 0.19406,-0.002 0.27654,-0.002 z m -14.11244,1.1041 -0.39751,1.48349 h 10.03754 l 0.3975,-1.48349 z m 6.5385,2.21424 c -2.47978,0 -2.97241,0.006 -3.18658,0.0333 -0.9829,0.12885 -1.78941,0.59239 -2.31424,1.33026 -0.24975,0.35115 -0.32362,0.53708 -0.71094,1.78742 -0.1954,0.63078 -0.35987,1.18918 -0.34823,1.18918 h 2.16205 2.16913 c 0.12292,-0.41592 0.23825,-0.83403 0.3573,-1.25107 0.26694,-0.94502 0.31754,-1.08955 0.4357,-1.24486 0.0922,-0.12112 0.30193,-0.26529 0.46761,-0.32135 0.1464,-0.0495 0.15823,-0.05 1.81634,-0.0612 l 1.66896,-0.0113 0.38869,-1.45038 z"
           style="opacity:1;fill:#000000;fill-opacity:1;stroke-width:0.05612276" />
        <path
           style="fill:#000000;stroke:none;stroke-width:0.05193658"
           d="m -632.3892,294.258 v 0.51935 0.51937 0.51937 0.51936 0.51936 0.51937 0.51936 h 0.51937 0.51937 0.51937 0.51936 0.51937 0.51937 0.51937 v -0.51936 -0.51937 -0.51936 -0.51936 -0.51937 -0.51937 -0.51935 h -0.51937 -0.51937 -0.51937 -0.51936 -0.51937 -0.51937 z m 4.15495,0 v 0.51935 0.51937 0.51937 0.51936 h 0.51937 v 0.51936 h -0.51937 v 0.51937 0.51936 h 0.51937 v -0.51936 h 0.51936 v 0.51936 0.51937 0.51937 h 0.51937 v -0.51937 h 0.51937 v -0.51937 h -0.51937 v -0.51936 -0.51937 -0.51936 -0.51936 h -0.51937 v -0.51937 h -0.51936 v -0.51937 -0.51935 z m 2.07747,3.63554 h 0.51937 v -0.51936 h -0.51937 z m 0.51937,-0.51936 h 0.51937 v -0.51937 h 0.51936 0.51937 v 0.51937 0.51936 h -0.51937 v -0.51936 h -0.51936 v 0.51936 0.51937 h 0.51936 v 0.51937 0.51936 0.51936 h 0.51937 v -0.51936 h 0.51937 0.51937 v 0.51936 h -0.51937 v 0.51937 0.51937 0.51937 h -0.51937 v -0.51937 -0.51937 h -0.51937 -0.51936 v 0.51937 0.51937 h -0.51937 v -0.51937 h -0.51937 v 0.51937 h -0.51937 v 0.51935 0.51937 h 0.51937 v -0.51937 h 0.51937 0.51937 0.51936 v 0.51937 0.51937 0.51936 0.51937 h -0.51936 v 0.51936 h 0.51936 0.51937 0.51937 v 0.51937 h -0.51937 -0.51937 -0.51936 v 0.51936 h 0.51936 v 0.51937 0.51936 h 0.51937 v -0.51936 h 0.51937 v 0.51936 h -0.51937 v 0.51936 h -0.51937 v 0.51937 h -0.51936 v 0.51937 h 0.51936 0.51937 0.51937 v -0.51937 -0.51937 h 0.51937 v -0.51936 h 0.51936 v -0.51936 -0.51937 -0.51936 h -0.51936 v -0.51937 h 0.51936 v 0.51937 h 0.51937 v -0.51937 -0.51936 h -0.51937 -0.51936 v -0.51937 h -0.51937 v 0.51937 h -0.51937 v -0.51937 h 0.51937 v -0.51936 h -0.51937 v -0.51937 -0.51937 h 0.51937 v 0.51937 0.51937 h 0.51937 v -0.51937 h 0.51936 v -0.51937 -0.51935 -0.51937 -0.51937 -0.51937 -0.51936 -0.51936 h -0.51936 v -0.51937 -0.51937 h -0.51937 v -0.51936 h 0.51937 v -0.51937 h -0.51937 v -0.51936 -0.51936 h -0.51937 v 0.51936 h -0.51937 v -0.51936 h -0.51936 -0.51937 v -0.51937 h 0.51937 v -0.51937 h 0.51936 0.51937 0.51937 0.51937 v 0.51937 h -0.51937 v 0.51937 h 0.51937 v 0.51936 h 0.51936 v -0.51936 -0.51937 h 0.51937 v 0.51937 0.51936 h 0.51937 v -0.51936 h 0.51927 v -0.51937 h -0.51927 v -0.51937 h -0.51937 -0.51937 V 294.258 h -0.51936 -0.51937 -0.51937 -0.51937 -0.51936 -0.51937 v 0.51935 h -0.51937 -0.51937 v 0.51937 h 0.51937 v 0.51937 0.51936 0.51936 h 0.51937 z m 2.59684,0 v 0.51936 h 0.51936 v -0.51936 z m 0.51936,0 h 0.51937 v 0.51936 h -0.51937 v 0.51937 h 0.51937 v 0.51937 h 0.51937 0.51927 v -0.51937 -0.51937 h -0.51927 v -0.51936 -0.51937 h -0.51937 -0.51937 z m 0,5.19365 v 0.51937 h 0.51937 v -0.51937 z m 0.51937,0 h 0.51937 v 0.51937 h 0.51927 v -0.51937 -0.51937 -0.51935 -0.51937 -0.51937 -0.51937 -0.51936 h -0.51927 -0.51937 v 0.51936 h 0.51937 v 0.51937 h -0.51937 v 0.51937 h 0.51937 v 0.51937 0.51935 h -0.51937 z m -0.51937,0.51937 h -0.51936 v 0.51936 h 0.51936 z m 0.51937,1.03873 h 0.51937 v -0.51937 h -0.51937 z m 0.51937,0 v 0.51936 0.51937 0.51936 h -0.51937 v 0.51937 h 0.51937 v 0.51936 h -0.51937 v 0.51936 h 0.51937 0.51927 v -0.51936 -0.51936 -0.51937 -0.51936 -0.51937 -0.51936 z m -1.5581,3.11618 v 0.51937 h 0.51936 v -0.51937 z m -0.51937,1.03874 v 0.51936 0.51936 h -0.51937 v -0.51936 h -0.51937 v 0.51936 h -0.51936 v 0.51937 0.51936 0.51937 h 0.51936 0.51937 v -0.51937 -0.51936 h 0.51937 v 0.51936 0.51937 0.51937 h 0.51937 v -0.51937 h 0.51936 0.51937 v 0.51937 h 0.51937 0.51927 v -0.51937 -0.51937 -0.51936 -0.51937 -0.51936 -0.51936 -0.51937 h -0.51927 v 0.51937 h -0.51937 v 0.51936 h -0.51937 v 0.51936 h 0.51937 0.51937 v 0.51937 h -0.51937 v 0.51936 h -0.51937 -0.51936 v -0.51936 h 0.51936 v -0.51937 h -0.51936 v -0.51936 -0.51936 z m -1.5581,-0.51937 v -0.51937 h -0.51937 v 0.51937 z m -0.51937,-0.51937 v -0.51936 h -0.51937 v 0.51936 z m -0.51937,-0.51936 v -0.51936 h 0.51937 v -0.51937 -0.51936 h -0.51937 v 0.51936 h -0.51937 v -0.51936 h 0.51937 v -0.51937 h -0.51937 v -0.51936 h -0.51937 v 0.51936 0.51937 0.51936 h -0.51936 v -0.51936 h -0.51937 v 0.51936 h -0.51937 -0.51937 v 0.51937 h 0.51937 v 0.51936 h 0.51937 0.51937 v -0.51936 h 0.51936 v 0.51936 h 0.51937 z m -2.59684,0 h -0.51937 v 0.51936 h 0.51937 z m 0.51937,-1.55809 v -0.51937 h 0.51937 v -0.51936 -0.51937 h 0.51936 0.51937 v -0.51936 h -0.51937 v -0.51937 h -0.51936 v -0.51937 h -0.51937 v 0.51937 h -0.51937 -0.51937 v 0.51937 h 0.51937 v 0.51936 h 0.51937 v 0.51937 h -0.51937 v 0.51936 h -0.51937 v 0.51937 h 0.51937 z m -0.51937,-1.03873 v -0.51937 h -0.51937 v -0.51936 h -0.51937 v -0.51937 h -0.51937 v 0.51937 h -0.51936 v 0.51936 h 0.51936 0.51937 v 0.51937 h 0.51937 z m -1.03874,0 h -0.51937 -0.51936 v -0.51937 h -0.51937 v -0.51936 h -0.51937 v 0.51936 0.51937 0.51936 h 0.51937 0.51937 v 0.51937 0.51936 h -0.51937 v 0.51937 h 0.51937 0.51936 v -0.51937 -0.51936 -0.51937 h 0.51937 z m -1.5581,-1.03873 h 0.51937 v -0.51937 -0.51937 -0.51935 h -0.51937 v 0.51935 h -0.51937 v 0.51937 h 0.51937 z m 0.51937,-1.55809 h 0.51936 v 0.51935 h 0.51937 v 0.51937 h 0.51937 v -0.51937 h 0.51937 0.51937 v -0.51935 h 0.51937 v 0.51935 h 0.51936 v -0.51935 h 0.51937 v -0.51937 h -0.51937 -0.51936 -0.51937 -0.51937 v 0.51937 h -0.51937 -0.51937 v -0.51937 h -0.51937 v -0.51937 h -0.51936 v 0.51937 z m 2.07747,-0.51937 v -0.51937 h -0.51937 v 0.51937 z m 2.07747,0 h 0.51937 v -0.51937 h -0.51937 z m 0.51937,-0.51937 h 0.51937 V 299.971 h -0.51937 z m 0,4.15492 h 0.51937 v -0.51936 h -0.51937 z m 0.51937,-0.51936 h 0.51937 v -0.51937 -0.51936 h -0.51937 v 0.51936 z m 0,-1.03873 v -0.51937 h -0.51937 v 0.51937 z m -0.51937,-4.67429 v 0.51937 h 0.51937 v -0.51937 z m 5.71295,-4.15491 v 0.51935 h -0.51927 v 0.51937 0.51937 h 0.51937 0.51926 v -0.51937 h -0.51926 v -0.51937 h 0.51926 V 294.258 Z m 1.5581,0 v 0.51935 0.51937 0.51937 0.51936 0.51936 0.51937 0.51936 h 0.51937 0.51937 0.51936 0.51937 0.51937 0.51937 0.51936 v -0.51936 -0.51937 -0.51936 -0.51936 -0.51937 -0.51937 -0.51935 h -0.51936 -0.51937 -0.51937 -0.51937 -0.51936 -0.51937 z m -12.9841,0.51935 h 0.51937 0.51937 0.51936 0.51937 0.51937 v 0.51937 0.51937 0.51936 0.51936 0.51937 h -0.51937 -0.51937 -0.51936 -0.51937 -0.51937 v -0.51937 -0.51936 -0.51936 -0.51937 z m 13.50347,0 h 0.51937 0.51936 0.51937 0.51937 0.51937 v 0.51937 0.51937 0.51936 0.51936 0.51937 h -0.51937 -0.51937 -0.51937 -0.51936 -0.51937 v -0.51937 -0.51936 -0.51936 -0.51937 z m -12.9841,0.51937 v 0.51937 0.51936 0.51936 h 0.51937 0.51936 0.51937 v -0.51936 -0.51936 -0.51937 h -0.51937 -0.51936 z m 13.50347,0 v 0.51937 0.51936 0.51936 h 0.51936 0.51937 0.51937 v -0.51936 -0.51936 -0.51937 h -0.51937 -0.51937 z m -2.59684,1.03873 v 0.51936 h 0.51936 v -0.51936 z m 0.51936,0.51936 v 0.51937 0.51936 h 0.51937 v -0.51936 -0.51937 z m -1.03863,0.51937 v 0.51936 h 0.51937 v -0.51936 z m -11.4261,1.03873 v 0.51937 h 0.51937 v 0.51936 h 0.51937 v -0.51936 -0.51937 h -0.51937 z m 2.07747,0 v 0.51937 h -0.51936 v 0.51936 h 0.51936 0.51937 v -0.51936 h 0.51937 0.51937 v -0.51937 h -0.51937 -0.51937 z m 0.51937,1.03873 v 0.51936 h 0.51937 0.51937 0.51937 v -0.51936 h -0.51937 -0.51937 z m 5.71305,-1.03873 h 0.51937 v 0.51937 h -0.51937 z m 3.11621,0 v 0.51937 h 0.51927 v 0.51936 0.51936 h -0.51927 v 0.51937 h 0.51937 0.51926 0.51937 0.51937 v -0.51937 -0.51936 -0.51936 h -0.51937 v 0.51936 h -0.51937 v -0.51936 h -0.51926 v -0.51937 z m 2.07737,2.07746 v 0.51937 h 0.51937 v -0.51937 z m 0.51937,-2.07746 v 0.51937 0.51936 0.51936 h 0.51937 v -0.51936 -0.51936 -0.51937 z m 1.03873,0 v 0.51937 h 0.51937 0.51937 0.51937 0.51936 v -0.51937 h -0.51936 -0.51937 -0.51937 z m -10.38725,1.03873 v 0.51936 0.51937 h 0.51936 V 299.971 h 0.51937 v -0.51936 h -0.51937 z m 10.38725,0 v 0.51936 0.51937 h 0.51937 V 299.971 h 0.51937 v -0.51936 h -0.51937 z m 0,1.03873 h -0.51936 v 0.51937 h 0.51936 z m 0,0.51937 v 0.51937 h 0.51937 v -0.51937 z m 0.51937,0.51937 v 0.51935 h 0.51937 0.51937 v -0.51935 h -0.51937 z m 0,0.51935 h -0.51937 v -0.51935 h -0.51936 -0.51937 v 0.51935 h 0.51937 v 0.51937 h -0.51937 v -0.51937 h -0.51937 -0.51937 v -0.51935 h -0.51937 v -0.51937 h -0.51936 v 0.51937 0.51935 h 0.51936 v 0.51937 0.51937 h 0.51937 v 0.51936 h -0.51937 v -0.51936 h -0.51926 v -0.51937 h -0.51937 v 0.51937 0.51936 h 0.51927 v 0.51937 h -0.51927 v 0.51936 0.51937 h 0.51927 v 0.51936 h -0.51927 v 0.51937 h 0.51937 0.51926 0.51937 v 0.51936 h -0.51937 v 0.51936 h -0.51926 v -0.51936 h -0.51937 v 0.51936 h 0.51927 v 0.51937 h -0.51927 v 0.51937 h 0.51937 v -0.51937 h 0.51926 v 0.51937 0.51936 0.51936 h 0.51937 0.51937 v 0.51937 h -0.51937 -0.51937 v 0.51936 h -0.51926 -1e-4 -0.51927 v 0.51937 h 0.51937 0.51926 v 0.51937 h 0.51937 v -0.51937 -0.51937 h 0.51937 0.51937 v -0.51936 -0.51937 h 0.51937 v 0.51937 0.51936 h 0.51936 v -0.51936 h 0.51937 v 0.51936 h 0.51937 0.51937 v -0.51936 h 0.51936 v -0.51937 -0.51936 h -0.51936 v 0.51936 h -0.51937 -0.51937 v -0.51936 h -0.51937 v -0.51936 -0.51937 h 0.51937 v 0.51937 h 0.51937 0.51937 v -0.51937 -0.51937 -0.51936 h -0.51937 v 0.51936 h -0.51937 v -0.51936 h -0.51937 v -0.51936 -0.51937 h -0.51936 v -0.51936 h -0.51937 v 0.51936 0.51937 h 0.51937 v 0.51936 h -0.51937 -0.51937 v -0.51936 -0.51937 -0.51936 h -0.51937 v 0.51936 h -0.51937 v -0.51936 h -0.51926 v -0.51937 h 0.51926 v 0.51937 h 0.51937 v -0.51937 h 0.51937 v 0.51937 h 0.51937 v -0.51937 -0.51936 -0.51937 h -0.51937 v -0.51936 h 0.51937 v 0.51936 h 0.51937 v -0.51936 h 0.51936 v -0.51937 h 0.51937 z m -0.51937,1.03874 v 0.51936 h 0.51937 v -0.51936 z m 0.51937,0.51936 v 0.51937 h 0.51937 0.51937 v -0.51937 h -0.51937 z m -1.03873,1.5581 h 0.51936 v 0.51936 h 0.51937 v 0.51937 h 0.51937 0.51937 v -0.51937 h -0.51937 v -0.51936 h -0.51937 v -0.51937 h -0.51937 v -0.51936 h -0.51936 v 0.51936 z m 1.03873,5.19364 h -0.51937 v 0.51937 h 0.51937 z m -0.51937,0.51937 h -0.51936 v -0.51937 h -0.51937 v 0.51937 0.51937 h 0.51937 0.51936 z m -2.59684,-1.03873 v -0.51937 h -0.51926 v -0.51936 h -0.51937 v 0.51936 h 0.51927 v 0.51937 z m -11.94536,-9.34857 v 0.51937 h 0.51937 v -0.51937 z m 15.58094,0 v 0.51937 h 0.51937 0.51936 v -0.51937 h -0.51936 z m 0.51937,2.07746 v 0.51937 h 0.51936 v -0.51937 z m 0,2.07746 v 0.51937 h 0.51936 v -0.51937 z m -16.10031,2.07746 v 0.51936 h 0.51937 v -0.51936 z m 1.03874,0 v 0.51936 h 0.51936 v -0.51936 z m 2.59684,0.51936 v 0.51937 h 0.51937 0.51936 v 0.51937 h -0.51936 -0.51937 v 0.51936 0.51936 h 0.51937 0.51936 0.51937 0.51937 v 0.51937 h 0.51937 v -0.51937 -0.51936 -0.51936 h -0.51937 v 0.51936 h -0.51937 v -0.51936 -0.51937 -0.51937 h -0.51937 -0.51936 z m 2.07747,2.59683 h -0.51937 -0.51937 v 0.51936 h 0.51937 v 0.51937 0.51937 h 0.51937 0.51937 v -0.51937 -0.51937 h -0.51937 z m -1.03874,0.51936 h -0.51936 -0.51937 v 0.51937 0.51937 h 0.51937 v -0.51937 h 0.51936 z m 7.79042,-3.11619 h 0.51937 0.51937 0.51937 v 0.51937 0.51937 0.51936 h -0.51937 -0.51937 -0.51937 v -0.51936 -0.51937 z m -12.9841,0.51937 v 0.51937 0.51936 0.51936 0.51937 0.51936 0.51937 0.51937 h 0.51937 0.51937 0.51937 0.51936 0.51937 0.51937 0.51937 v -0.51937 -0.51937 -0.51936 -0.51937 -0.51936 -0.51936 -0.51937 h -0.51937 -0.51937 -0.51937 -0.51936 -0.51937 -0.51937 z m 13.50347,0 v 0.51937 h 0.51937 v -0.51937 z m -12.9841,0.51937 h 0.51937 0.51937 0.51936 0.51937 0.51937 v 0.51936 0.51936 0.51937 0.51936 0.51937 h -0.51937 -0.51937 -0.51936 -0.51937 -0.51937 v -0.51937 -0.51936 -0.51937 -0.51936 z m 0.51937,0.51936 v 0.51936 0.51937 0.51936 h 0.51937 0.51936 0.51937 v -0.51936 -0.51937 -0.51936 h -0.51937 -0.51936 z m 15.58094,2.07746 v 0.51937 h 0.51936 v -0.51937 z"
           id="path4288"
           inkscape:connector-curvature="0" />
        <path
           inkscape:connector-curvature="0"
           id="rect4503"
           d="m -664.57627,332.59677 h 6.64547 v -0.19315 h -6.64547 z m 0,-0.57947 h 6.64547 v -0.19315 h -6.64547 z m 0,-0.3863 h 6.64547 v -0.38632 h -6.64547 z m 0,-0.57946 h 6.64547 v -0.38632 h -6.64547 z m 0,-0.57947 h 6.64547 v -0.19316 h -6.64547 z m 0,-0.38631 h 6.64547 v -0.38632 h -6.64547 z m 0,-0.57947 h 6.64547 v -0.19316 h -6.64547 z m 0,-0.57947 h 6.64547 v -0.19315 h -6.64547 z m 0,-0.3863 h 6.64547 v -0.19316 h -6.64547 z m 0,-0.38631 h 6.64547 v -0.38632 h -6.64547 z m 0,-0.57947 h 6.64547 v -0.19316 h -6.64547 z m 0,-0.38631 h 6.64547 v -0.38632 h -6.64547 z m 0,-0.77263 h 6.64547 v -0.3863 h -6.64547 z m 0,-0.57946 h 6.64547 v -0.19316 h -6.64547 z m 0,-0.38631 h 6.64547 v -0.19315 h -6.64547 z m 0,-0.38632 h 6.64547 v -0.3863 h -6.64547 z m 0,-0.57947 h 6.64547 v -0.3863 h -6.64547 z m 0,-0.57946 h 6.64547 v -0.19315 h -6.64547 z m 0,-0.3863 h 6.64547 v -0.19316 h -6.64547 z m 0,-0.57947 h 6.64547 v -0.19316 h -6.64547 z m 0,-0.38631 h 6.64547 v -0.19316 h -6.64547 z m 0,-0.57947 h 6.64547 v -0.38632 h -6.64547 z m 0,-0.57947 h 6.64547 v -0.3863 h -6.64547 z m 0,-0.57946 h 6.64547 v -0.19315 h -6.64547 z m 0,-0.38631 h 6.64547 v -0.19316 h -6.64547 z m 0,-0.38631 h 6.64547 v -0.19316 h -6.64547 z m 0,-0.57947 h 6.64547 v -0.19316 h -6.64547 z m 0,-0.38631 h 6.64547 v -0.19316 h -6.64547 z m 0,-0.38631 h 6.64547 v -0.38631 h -6.64547 z m 0,-0.57947 h 6.64547 v -0.3863 h -6.64547 z m 0,-0.57947 h 6.64547 v -0.19315 h -6.64547 z m 0,-0.3863 h 6.64547 v -0.19316 h -6.64547 z m 0,-0.57947 h 6.64547 v -0.38631 h -6.64547 z m 0,-0.57946 h 6.64547 v -0.38632 h -6.64547 z m 0,-0.57947 h 6.64547 v -0.19316 h -6.64547 z m 0,-0.38631 h 6.64547 v -0.19316 h -6.64547 z m 0,-0.38632 h 6.64547 v -0.19315 h -6.64547 z m 0,-0.57947 h 6.64547 v -0.38629 h -6.64547 z m 0,-0.57945 h 6.64547 v -0.38631 h -6.64547 z m 0,-0.57947 h 6.64547 v -0.19316 h -6.64547 z m 0,-0.38631 h 6.64547 v -0.19316 h -6.64547 z m 0,-0.38632 h 6.64547 v -0.19315 h -6.64547 z m 0,-0.57946 h 6.64547 v -0.38631 h -6.64547 z m 0,-0.57946 h 6.64547 v -0.38632 h -6.64547 z m 0,-0.57947 h 6.64547 v -0.19316 h -6.64547 z m 0,-0.38632 h 6.64547 v -0.19315 h -6.64547 z m 0,-0.3863 h 6.64547 v -0.19316 h -6.64547 z m 0,-0.57946 h 6.64547 v -0.38632 h -6.64547 z m 0,-0.57947 h 6.64547 v -0.38632 h -6.64547 z m 0,-0.57947 h 6.64547 v -0.19316 h -6.64547 z m 0,-0.38631 h 6.64547 v -0.19316 h -6.64547 z m 0,-0.38632 h 6.64547 v -0.19315 h -6.64547 z m 0,-0.57946 h 6.64547 v -0.3863 h -6.64547 z m 0,-0.57947 h 6.64547 v -0.3863 h -6.64547 z m 0,-0.57946 h 6.64547 v -0.19316 h -6.64547 z m 0,-0.38631 h 6.64547 v -0.19316 h -6.64547 z m 0,-0.38632 h 6.64547 v -0.19315 h -6.64547 z m 0,-0.57945 h 6.64547 v -0.38632 h -6.64547 z m 0,-0.57947 h 6.64547 V 303.044 h -6.64547 z m 0,-0.57947 h 6.64547 v -0.19316 h -6.64547 z m 0,-0.38632 h 6.64547 v -0.19315 h -6.64547 z m 0,-0.3863 h 6.64547 v -0.19316 h -6.64547 z m 0,-0.57946 h 6.64547 v -0.38632 h -6.64547 z m 0,-0.57947 h 6.64547 v -0.38631 h -6.64547 z m 0,-0.57947 h 6.64547 v -0.19316 h -6.64547 z m 0,-0.38631 h 6.64547 v -0.19316 h -6.64547 z m 0,-0.38632 h 6.64547 v -0.19315 h -6.64547 z m 0,-0.57946 h 6.64547 v -0.3863 h -6.64547 z m 0,-0.57947 h 6.64547 v -0.3863 h -6.64547 z m 0,-0.57946 h 6.64547 v -0.19316 h -6.64547 z m 0,-0.38631 h 6.64547 v -0.19316 h -6.64547 z m 0,-0.57947 h 6.64547 v -0.19315 h -6.64547 z m 0,-0.38631 h 6.64547 v -0.38631 h -6.64547 z m 0,-0.57946 h 6.64547 v -0.38632 h -6.64547 z m 0,-0.57947 h 6.64547 v -0.19316 h -6.64547 z"
           style="fill:#000000;stroke-width:0.2068498" />
        <g
           id="flowRoot4962"
           style="font-style:normal;font-weight:normal;font-size:40px;line-height:125%;font-family:sans-serif;letter-spacing:0px;word-spacing:4.26000023px;opacity:1;fill:#000000;fill-opacity:1;stroke:none;stroke-width:1px;stroke-linecap:butt;stroke-linejoin:miter;stroke-opacity:1"
           transform="matrix(0.12308475,0,0,0.12308475,-966.02304,162.51349)"
           aria-label="Emisiones">
          <path
             id="path11067"
             style="font-style:normal;font-variant:normal;font-weight:bold;font-stretch:normal;font-family:Arial;-inkscape-font-specification:'Arial Bold';fill:#000000"
             d="m 2562.6367,1031.7334 v -28.6328 h 21.2305 v 4.8438 h -15.4492 v 6.3476 h 14.375 v 4.8243 h -14.375 v 7.7929 h 15.9961 v 4.8242 z" />
          <path
             id="path11069"
             style="font-style:normal;font-variant:normal;font-weight:bold;font-stretch:normal;font-family:Arial;-inkscape-font-specification:'Arial Bold';fill:#000000"
             d="m 2588.9063,1010.9913 h 5.0585 v 2.832 q 2.7149,-3.3008 6.4649,-3.3008 1.9922,0 3.457,0.8203 1.4649,0.8203 2.4024,2.4805 1.3672,-1.6602 2.9492,-2.4805 1.582,-0.8203 3.3789,-0.8203 2.2851,0 3.8672,0.9375 1.582,0.918 2.3633,2.7149 0.5664,1.3281 0.5664,4.2968 v 13.2617 h -5.4883 v -11.8554 q 0,-3.086 -0.5664,-3.9844 -0.7617,-1.1719 -2.3438,-1.1719 -1.1523,0 -2.1679,0.7032 -1.0157,0.7031 -1.4649,2.0703 -0.4492,1.3476 -0.4492,4.2773 v 9.9609 h -5.4883 v -11.3671 q 0,-3.0274 -0.293,-3.9063 -0.2929,-0.8789 -0.9179,-1.3086 -0.6055,-0.4297 -1.6602,-0.4297 -1.2695,0 -2.2851,0.6836 -1.0157,0.6836 -1.4649,1.9727 -0.4297,1.289 -0.4297,4.2773 v 10.0781 h -5.4882 z" />
          <path
             id="path11071"
             style="font-style:normal;font-variant:normal;font-weight:bold;font-stretch:normal;font-family:Arial;-inkscape-font-specification:'Arial Bold';fill:#000000"
             d="m 2624.8633,1008.1788 v -5.0782 h 5.4883 v 5.0782 z m 0,23.5546 v -20.7421 h 5.4883 v 20.7421 z" />
          <path
             id="path11073"
             style="font-style:normal;font-variant:normal;font-weight:bold;font-stretch:normal;font-family:Arial;-inkscape-font-specification:'Arial Bold';fill:#000000"
             d="m 2634.0234,1025.8155 5.5079,-0.8399 q 0.3515,1.6016 1.4257,2.4414 1.0743,0.8204 3.0078,0.8204 2.129,0 3.2032,-0.7813 0.7226,-0.5469 0.7226,-1.4648 0,-0.625 -0.3906,-1.0352 -0.4102,-0.3906 -1.8359,-0.7227 -6.6407,-1.4648 -8.418,-2.6757 -2.4609,-1.6797 -2.4609,-4.668 0,-2.6953 2.1289,-4.5313 2.1289,-1.8359 6.6015,-1.8359 4.2578,0 6.3282,1.3867 2.0703,1.3867 2.8515,4.1016 l -5.1758,0.957 q -0.332,-1.2109 -1.2695,-1.8554 -0.918,-0.6446 -2.6367,-0.6446 -2.168,0 -3.1055,0.6055 -0.625,0.4297 -0.625,1.1133 0,0.5859 0.5469,0.9961 0.7422,0.5468 5.1172,1.5429 4.3945,0.9961 6.1328,2.4414 1.7187,1.4649 1.7187,4.0821 0,2.8515 -2.3828,4.9023 -2.3828,2.0508 -7.0508,2.0508 -4.2382,0 -6.7187,-1.7188 -2.4609,-1.7187 -3.2227,-4.6679 z" />
          <path
             id="path11075"
             style="font-style:normal;font-variant:normal;font-weight:bold;font-stretch:normal;font-family:Arial;-inkscape-font-specification:'Arial Bold';fill:#000000"
             d="m 2658.2227,1008.1788 v -5.0782 h 5.4882 v 5.0782 z m 0,23.5546 v -20.7421 h 5.4882 v 20.7421 z" />
          <path
             id="path11077"
             style="font-style:normal;font-variant:normal;font-weight:bold;font-stretch:normal;font-family:Arial;-inkscape-font-specification:'Arial Bold';fill:#000000"
             d="m 2668.0469,1021.0694 q 0,-2.7344 1.3476,-5.293 1.3477,-2.5586 3.8086,-3.9062 2.4805,-1.3477 5.5274,-1.3477 4.707,0 7.7148,3.0664 3.0078,3.0469 3.0078,7.7149 0,4.707 -3.0468,7.8125 -3.0274,3.0859 -7.6368,3.0859 -2.8515,0 -5.4492,-1.2891 -2.5781,-1.289 -3.9258,-3.7695 -1.3476,-2.5 -1.3476,-6.0742 z m 5.625,0.293 q 0,3.0859 1.4648,4.7265 1.4649,1.6406 3.6133,1.6406 2.1484,0 3.5938,-1.6406 1.4648,-1.6406 1.4648,-4.7656 0,-3.0469 -1.4648,-4.6875 -1.4454,-1.6406 -3.5938,-1.6406 -2.1484,0 -3.6133,1.6406 -1.4648,1.6406 -1.4648,4.7266 z" />
          <path
             id="path11079"
             style="font-style:normal;font-variant:normal;font-weight:bold;font-stretch:normal;font-family:Arial;-inkscape-font-specification:'Arial Bold';fill:#000000"
             d="m 2712.6367,1031.7334 h -5.4883 v -10.5859 q 0,-3.3594 -0.3515,-4.3359 -0.3516,-0.9961 -1.1524,-1.543 -0.7812,-0.5469 -1.8945,-0.5469 -1.4258,0 -2.5586,0.7813 -1.1328,0.7812 -1.5625,2.0703 -0.4101,1.2891 -0.4101,4.7656 v 9.3945 h -5.4883 v -20.7421 h 5.0976 v 3.0468 q 2.7149,-3.5156 6.836,-3.5156 1.8164,0 3.3203,0.6641 1.5039,0.6445 2.2656,1.6601 0.7813,1.0157 1.0742,2.3047 0.3125,1.2891 0.3125,3.6914 z" />
          <path
             id="path11081"
             style="font-style:normal;font-variant:normal;font-weight:bold;font-stretch:normal;font-family:Arial;-inkscape-font-specification:'Arial Bold';fill:#000000"
             d="m 2730.2344,1025.1319 5.4687,0.918 q -1.0547,3.0078 -3.3398,4.5898 -2.2656,1.5625 -5.6836,1.5625 -5.4102,0 -8.0078,-3.5352 -2.0508,-2.832 -2.0508,-7.1484 0,-5.1562 2.6953,-8.0664 2.6953,-2.9297 6.8164,-2.9297 4.6289,0 7.3047,3.0664 2.6758,3.0469 2.5586,9.3555 h -13.75 q 0.059,2.4414 1.3281,3.8086 1.2696,1.3476 3.1641,1.3476 1.289,0 2.168,-0.7031 0.8789,-0.7031 1.3281,-2.2656 z m 0.3125,-5.5469 q -0.059,-2.3828 -1.2305,-3.6133 -1.1719,-1.25 -2.8516,-1.25 -1.7968,0 -2.9687,1.3086 -1.1719,1.3086 -1.1523,3.5547 z" />
          <path
             id="path11083"
             style="font-style:normal;font-variant:normal;font-weight:bold;font-stretch:normal;font-family:Arial;-inkscape-font-specification:'Arial Bold';fill:#000000"
             d="m 2738.5547,1025.8155 5.5078,-0.8399 q 0.3516,1.6016 1.4258,2.4414 1.0742,0.8204 3.0078,0.8204 2.1289,0 3.2031,-0.7813 0.7227,-0.5469 0.7227,-1.4648 0,-0.625 -0.3906,-1.0352 -0.4102,-0.3906 -1.836,-0.7227 -6.6406,-1.4648 -8.418,-2.6757 -2.4609,-1.6797 -2.4609,-4.668 0,-2.6953 2.1289,-4.5313 2.1289,-1.8359 6.6016,-1.8359 4.2578,0 6.3281,1.3867 2.0703,1.3867 2.8516,4.1016 l -5.1758,0.957 q -0.332,-1.2109 -1.2695,-1.8554 -0.918,-0.6446 -2.6368,-0.6446 -2.1679,0 -3.1054,0.6055 -0.625,0.4297 -0.625,1.1133 0,0.5859 0.5468,0.9961 0.7422,0.5468 5.1172,1.5429 4.3946,0.9961 6.1328,2.4414 1.7188,1.4649 1.7188,4.0821 0,2.8515 -2.3828,4.9023 -2.3828,2.0508 -7.0508,2.0508 -4.2383,0 -6.7188,-1.7188 -2.4609,-1.7187 -3.2226,-4.6679 z" />
        </g>
        <path
           inkscape:connector-curvature="0"
           id="path5027"
           d="m -645.55979,300.3011 a 9.1180931,13.54316 0 0 0 -9.11809,13.54326 9.1180931,13.54316 0 0 0 9.11809,13.54323 9.1180931,13.54316 0 0 0 9.11807,-13.54323 9.1180931,13.54316 0 0 0 -9.11807,-13.54326 z m 0,3.43814 a 5.1014945,10.105196 0 0 1 5.10152,10.10512 5.1014945,10.105196 0 0 1 -5.10152,10.10509 5.1014945,10.105196 0 0 1 -5.10154,-10.10509 5.1014945,10.105196 0 0 1 5.10154,-10.10512 z"
           style="opacity:1;fill:#000000;fill-opacity:1;fill-rule:nonzero;stroke:none;stroke-width:0.90714329;stroke-linecap:butt;stroke-linejoin:miter;stroke-miterlimit:4;stroke-dasharray:none;stroke-dashoffset:0;stroke-opacity:1;paint-order:fill markers stroke" />
        <path
           inkscape:connector-curvature="0"
           style="color:#000000;font-style:normal;font-variant:normal;font-weight:normal;font-stretch:normal;font-size:medium;line-height:normal;font-family:sans-serif;font-variant-ligatures:normal;font-variant-position:normal;font-variant-caps:normal;font-variant-numeric:normal;font-variant-alternates:normal;font-feature-settings:normal;text-indent:0;text-align:start;text-decoration:none;text-decoration-line:none;text-decoration-style:solid;text-decoration-color:#000000;letter-spacing:normal;word-spacing:normal;text-transform:none;writing-mode:lr-tb;direction:ltr;text-orientation:mixed;dominant-baseline:auto;baseline-shift:baseline;text-anchor:start;white-space:normal;shape-padding:0;clip-rule:nonzero;display:inline;overflow:visible;visibility:visible;opacity:1;isolation:auto;mix-blend-mode:normal;color-interpolation:sRGB;color-interpolation-filters:linearRGB;solid-color:#000000;solid-opacity:1;vector-effect:none;fill:#f0b618;fill-opacity:1;fill-rule:evenodd;stroke:none;stroke-width:0.14454947;stroke-linecap:butt;stroke-linejoin:miter;stroke-miterlimit:4;stroke-dasharray:none;stroke-dashoffset:0;stroke-opacity:1;color-rendering:auto;image-rendering:auto;shape-rendering:auto;text-rendering:auto;enable-background:accumulate"
           d="m -634.2317,316.4342 v 0.005 c 0.45378,0.64111 0.92043,1.35335 1.22716,2.22337 0.19189,0.54424 0.35572,1.15642 0.31068,1.77289 -0.045,0.61648 -0.29456,1.23883 -0.94463,1.8195 -0.16534,0.1477 -0.37074,0.2904 -0.59321,0.43319 v 0.1738 c 0.25578,-0.16187 0.49518,-0.32599 0.68935,-0.49943 0.67487,-0.60284 0.94529,-1.26781 0.99269,-1.9165 0.0474,-0.64868 -0.12403,-1.27969 -0.31859,-1.83152 -0.30105,-0.85389 -0.75064,-1.55598 -1.18965,-2.18058 z m 0.97833,0 c 0.48962,0.68395 1.01276,1.44547 1.34645,2.3916 0.19191,0.54411 0.35599,1.15629 0.31097,1.77261 -0.045,0.61631 -0.29487,1.23805 -0.94492,1.81862 -0.42011,0.37521 -1.08335,0.71986 -1.69083,1.10993 v 0.17439 c 0.61801,-0.40253 1.32473,-0.76338 1.78726,-1.17647 0.67486,-0.60272 0.94532,-1.26768 0.99269,-1.91621 0.0474,-0.64854 -0.1243,-1.27923 -0.31888,-1.83093 -0.32764,-0.92897 -0.8311,-1.67857 -1.30542,-2.34354 z m 0.98214,0 c 0.52215,0.72652 1.10117,1.52985 1.46222,2.5528 0.19195,0.54383 0.35594,1.15573 0.31097,1.77173 -0.045,0.61599 -0.29463,1.23742 -0.94463,1.81774 -0.56719,0.50637 -1.57806,0.95669 -2.29576,1.539 -0.18938,0.15367 -0.35807,0.31783 -0.49327,0.49621 v 0.26025 c 0.13536,-0.23207 0.3387,-0.44483 0.58442,-0.6442 0.69398,-0.56307 1.70244,-1.00895 2.30075,-1.54311 0.67481,-0.60247 0.94536,-1.26712 0.99269,-1.91534 0.0473,-0.64824 -0.12426,-1.27893 -0.31888,-1.83034 -0.35483,-1.00528 -0.9141,-1.79996 -1.4209,-2.50474 z m 0.99328,0 c 0.54802,0.76563 1.18238,1.60799 1.56861,2.70199 0.19195,0.54372 0.35593,1.15525 0.31097,1.77113 -0.045,0.6159 -0.29464,1.23751 -0.94463,1.81774 -0.56718,0.50631 -1.57807,0.95648 -2.29576,1.53872 -0.35885,0.29112 -0.64739,0.61849 -0.76321,1.01262 -0.029,0.0985 -0.0467,0.2007 -0.0519,0.30687 -0.0156,0.3185 0.0813,0.672 0.32416,1.06303 1.02743,1.65434 2.14629,3.41311 2.57156,5.11206 0.3072,1.22726 0.25627,2.41823 -0.44637,3.53376 h 0.16589 c 0.67726,-1.13071 0.72753,-2.34385 0.42087,-3.56894 -0.43403,-1.73393 -1.56266,-3.49979 -2.58944,-5.15308 -0.30876,-0.49715 -0.35967,-0.90071 -0.25616,-1.25297 0.10351,-0.35223 0.36874,-0.65989 0.71572,-0.94139 0.69397,-0.56299 1.70246,-1.00873 2.30075,-1.54282 0.6748,-0.60239 0.94539,-1.26692 0.99269,-1.91505 0.0473,-0.64811 -0.12424,-1.27843 -0.31888,-1.82974 -0.38074,-1.07845 -0.99356,-1.91168 -1.52728,-2.65393 z m 1.00207,0 c 0.56808,0.80226 1.25769,1.68075 1.66738,2.8412 0.19195,0.54372 0.35592,1.15525 0.31097,1.77115 -0.045,0.61588 -0.29464,1.2375 -0.94463,1.81772 -0.56717,0.50632 -1.57777,0.9562 -2.29547,1.53843 -0.35885,0.29112 -0.64768,0.61878 -0.76349,1.01292 -0.029,0.0985 -0.0467,0.20069 -0.0519,0.30686 -0.0156,0.31852 0.0813,0.672 0.32415,1.06303 1.02743,1.65434 2.14659,3.41282 2.57186,5.11177 0.29444,1.17629 0.26187,2.31962 -0.35992,3.39484 h 0.16062 c 0.60039,-1.09076 0.63348,-2.25485 0.33939,-3.42972 -0.43402,-1.73392 -1.56236,-3.49979 -2.58914,-5.15309 -0.30875,-0.49715 -0.35967,-0.90071 -0.25616,-1.25295 0.1035,-0.35225 0.36874,-0.65961 0.71572,-0.94111 0.69397,-0.56299 1.70216,-1.00903 2.30045,-1.54311 0.67481,-0.60239 0.94538,-1.26693 0.9927,-1.91504 0.0473,-0.64813 -0.12425,-1.27845 -0.31888,-1.82976 -0.40477,-1.14651 -1.07139,-2.01636 -1.62606,-2.79314 z m 1.00881,0 c 0.58295,0.83686 1.32888,1.74937 1.76059,2.97222 0.19196,0.54372 0.35592,1.15525 0.31096,1.77113 -0.045,0.6159 -0.29463,1.23751 -0.94462,1.81774 -0.56718,0.50631 -1.57808,0.95648 -2.29577,1.53872 -0.35884,0.2911 -0.64739,0.61847 -0.7632,1.01261 -0.029,0.0985 -0.0467,0.20071 -0.0519,0.30688 -0.0156,0.3185 0.0813,0.67199 0.32416,1.06302 1.02743,1.65435 2.14629,3.41312 2.57156,5.11207 0.28253,1.1287 0.26191,2.22661 -0.28928,3.26353 h 0.15768 c 0.5333,-1.05281 0.55435,-2.17068 0.27199,-3.29871 -0.43403,-1.73393 -1.56237,-3.49979 -2.58915,-5.15309 -0.30876,-0.49714 -0.35996,-0.90072 -0.25645,-1.25296 0.1035,-0.35223 0.36874,-0.65961 0.71572,-0.94111 0.69396,-0.56298 1.70246,-1.00901 2.30075,-1.54311 0.6748,-0.60237 0.94538,-1.26691 0.99269,-1.91504 0.0473,-0.64811 -0.12454,-1.27844 -0.31917,-1.82974 -0.42747,-1.21084 -1.14885,-2.11495 -1.71926,-2.92416 z m 1.01819,0 c 0.007,0.0106 0.0135,0.021 0.0208,0.0317 0.59074,0.86096 1.37757,1.79659 1.82448,3.06248 0.19196,0.54372 0.35593,1.15525 0.31097,1.77113 -0.045,0.61588 -0.29464,1.2375 -0.94463,1.81774 -0.56717,0.50631 -1.57807,0.95619 -2.29576,1.53842 -0.35885,0.29113 -0.64739,0.61879 -0.76321,1.01291 -0.029,0.0986 -0.0467,0.20071 -0.0519,0.30688 -0.0156,0.3185 0.0813,0.6717 0.32416,1.06273 1.02743,1.65434 2.14629,3.41312 2.57156,5.11206 0.27149,1.08456 0.26359,2.14092 -0.22626,3.14191 h 0.15739 c 0.4748,-1.017 0.48074,-2.09255 0.20926,-3.17709 -0.43403,-1.73391 -1.56236,-3.49949 -2.58915,-5.1528 -0.30875,-0.49713 -0.35995,-0.90069 -0.25645,-1.25295 0.10351,-0.35224 0.36875,-0.6599 0.71572,-0.94139 0.69397,-0.563 1.70246,-1.00873 2.30075,-1.54283 0.67481,-0.60238 0.94538,-1.26691 0.99269,-1.91504 0.0473,-0.64813 -0.12423,-1.27845 -0.31888,-1.82975 -0.44849,-1.27039 -1.22488,-2.20682 -1.80601,-3.04608 z m 1.03021,0 c 0.0317,0.0478 0.0616,0.0949 0.0947,0.14304 0.59074,0.86096 1.37757,1.79659 1.82448,3.06248 0.19196,0.5437 0.35592,1.15525 0.31097,1.77113 -0.045,0.6159 -0.29464,1.2375 -0.94463,1.81774 -0.56717,0.50631 -1.57807,0.95648 -2.29576,1.53872 -0.35885,0.29112 -0.64739,0.61848 -0.76321,1.01261 -0.029,0.0985 -0.0467,0.20071 -0.0519,0.30686 -0.0156,0.31852 0.081,0.67201 0.32386,1.06304 1.02744,1.65433 2.14658,3.41312 2.57186,5.11205 0.26142,1.04438 0.26423,2.06243 -0.17322,3.03025 h 0.15124 c 0.42483,-0.98402 0.42397,-2.02035 0.16237,-3.06541 -0.43403,-1.73393 -1.56236,-3.49979 -2.58915,-5.15309 -0.30875,-0.49714 -0.35996,-0.9007 -0.25645,-1.25296 0.10351,-0.35223 0.36874,-0.65961 0.71572,-0.9411 0.69397,-0.56299 1.70246,-1.00904 2.30075,-1.54312 0.6748,-0.60239 0.94538,-1.26691 0.99269,-1.91504 0.0473,-0.64813 -0.12424,-1.27845 -0.31888,-1.82976 -0.45717,-1.29495 -1.25738,-2.24448 -1.84177,-3.09618 -0.0142,-0.0207 -0.0265,-0.0407 -0.0405,-0.0613 z m 1.039,0 c 0.0522,0.0809 0.10467,0.1616 0.16091,0.24357 0.59073,0.86096 1.37756,1.79659 1.82447,3.06248 0.19195,0.54372 0.35593,1.15525 0.31097,1.77113 -0.045,0.61589 -0.29464,1.23751 -0.94463,1.81774 -0.56717,0.50631 -1.57807,0.95648 -2.29576,1.53871 -0.35885,0.29113 -0.64738,0.61848 -0.7632,1.01262 -0.029,0.0985 -0.0467,0.20071 -0.0519,0.30688 -0.0156,0.3185 0.0813,0.672 0.32415,1.06303 1.02743,1.65432 2.14629,3.4131 2.57156,5.11205 0.25239,1.00827 0.26227,1.99201 -0.13071,2.92971 h 0.15094 c 0.3824,-0.95395 0.37286,-1.95537 0.12016,-2.96488 -0.43402,-1.73393 -1.56236,-3.49979 -2.58914,-5.1531 -0.30877,-0.49714 -0.35996,-0.90071 -0.25646,-1.25295 0.10351,-0.35224 0.36874,-0.65961 0.71573,-0.94111 0.69396,-0.56299 1.70245,-1.00902 2.30074,-1.54311 0.6748,-0.60238 0.94538,-1.26691 0.9927,-1.91504 0.0473,-0.64813 -0.12425,-1.27844 -0.31889,-1.82975 -0.45717,-1.29497 -1.25738,-2.24419 -1.84176,-3.0959 -0.0375,-0.0547 -0.0711,-0.10815 -0.10669,-0.16208 z m 1.05043,0 c 0.0684,0.10902 0.14085,0.21862 0.21688,0.32943 0.59074,0.86098 1.37757,1.79631 1.82448,3.0622 0.19196,0.54371 0.35622,1.15555 0.31126,1.77143 -0.045,0.61588 -0.29493,1.2375 -0.94492,1.81774 -0.56717,0.50629 -1.57777,0.95617 -2.29547,1.53842 -0.35885,0.29112 -0.64768,0.61849 -0.76349,1.01262 -0.029,0.0985 -0.0464,0.20098 -0.0516,0.30715 -0.0156,0.31852 0.081,0.67172 0.32386,1.06275 1.02743,1.65434 2.14658,3.4131 2.57185,5.11206 0.24472,0.9776 0.262,1.9322 -0.0953,2.84412 h 0.15094 c 0.34814,-0.92813 0.32954,-1.90003 0.0844,-2.8793 -0.43403,-1.73391 -1.56236,-3.49979 -2.58914,-5.15308 -0.30876,-0.49717 -0.35967,-0.90043 -0.25616,-1.25267 0.1035,-0.35226 0.36874,-0.6599 0.71572,-0.94139 0.69397,-0.563 1.70245,-1.00903 2.30075,-1.54312 0.6748,-0.60239 0.94508,-1.26662 0.9924,-1.91475 0.0473,-0.64813 -0.12396,-1.27873 -0.31859,-1.83005 -0.45718,-1.29496 -1.25739,-2.24419 -1.84177,-3.0959 -0.0574,-0.0836 -0.11086,-0.16574 -0.16355,-0.24766 z m 1.06948,0 c 0.0798,0.13049 0.16379,0.26158 0.25499,0.3945 0.59074,0.86097 1.37786,1.79631 1.82477,3.06219 0.19195,0.54372 0.35593,1.15554 0.31097,1.77144 -0.045,0.61588 -0.29464,1.23721 -0.94463,1.81744 -0.56717,0.5063 -1.57807,0.95647 -2.29576,1.53871 -0.35885,0.29112 -0.64739,0.61848 -0.76321,1.01263 -0.029,0.0985 -0.0467,0.20098 -0.0519,0.30715 -0.0156,0.3185 0.0813,0.67172 0.32416,1.06275 1.02743,1.65433 2.14629,3.41311 2.57156,5.11205 0.23888,0.9543 0.26328,1.8869 -0.068,2.77906 h 0.14625 c 0.32341,-0.90853 0.30156,-1.85776 0.0621,-2.81423 -0.43402,-1.73394 -1.56235,-3.4998 -2.58914,-5.1531 -0.30876,-0.49714 -0.35996,-0.9007 -0.25646,-1.25295 0.10351,-0.35224 0.36874,-0.65961 0.71573,-0.9411 0.69396,-0.563 1.70245,-1.00903 2.30074,-1.54311 0.67481,-0.60239 0.94538,-1.26693 0.99269,-1.91506 0.0473,-0.64811 -0.12424,-1.27843 -0.31888,-1.82974 -0.45717,-1.29497 -1.25738,-2.2442 -1.84177,-3.09591 -0.0725,-0.10568 -0.1415,-0.20966 -0.20633,-0.31272 z m 1.08619,0 c 0.0862,0.14319 0.17738,0.2869 0.27755,0.4329 0.59074,0.86096 1.37786,1.79631 1.82477,3.06218 0.19196,0.54373 0.35592,1.15555 0.31097,1.77143 -0.045,0.6159 -0.29464,1.23721 -0.94462,1.81745 -0.56718,0.50631 -1.57808,0.95648 -2.29577,1.53872 -0.35885,0.29112 -0.64739,0.61878 -0.7632,1.01291 -0.0289,0.0985 -0.0467,0.2007 -0.0519,0.30687 -0.0156,0.3185 0.0813,0.67172 0.32415,1.06273 1.02744,1.65434 2.1463,3.41312 2.57157,5.11206 0.23546,0.94069 0.26116,1.86012 -0.0554,2.74067 h 0.14625 c 0.30923,-0.89685 0.28558,-1.8328 0.0495,-2.77583 -0.43404,-1.73393 -1.56266,-3.49981 -2.58944,-5.1531 -0.30877,-0.49715 -0.35967,-0.90071 -0.25616,-1.25295 0.1035,-0.35225 0.36874,-0.65961 0.71572,-0.94111 0.69397,-0.56299 1.70245,-1.00903 2.30075,-1.54311 0.6748,-0.6024 0.94538,-1.26663 0.99269,-1.91476 0.0473,-0.64811 -0.12425,-1.27873 -0.31888,-1.83004 -0.45718,-1.29496 -1.25739,-2.2442 -1.84177,-3.09589 -0.0816,-0.1189 -0.15721,-0.23551 -0.2289,-0.35113 z m 1.10553,0 c 0.0873,0.14549 0.17987,0.29129 0.28166,0.43963 0.59074,0.86097 1.37757,1.79662 1.82448,3.06249 0.19195,0.54372 0.35592,1.15525 0.31096,1.77115 -0.045,0.61588 -0.29463,1.23749 -0.94462,1.81772 -0.56718,0.50632 -1.57778,0.95648 -2.29547,1.53872 -0.35885,0.29111 -0.64769,0.61849 -0.7635,1.01262 -0.029,0.0985 -0.0467,0.2007 -0.0519,0.30687 -0.0156,0.31851 0.0813,0.672 0.32416,1.06303 1.02743,1.65434 2.14658,3.41282 2.57185,5.11175 0.23487,0.93829 0.26065,1.85544 -0.0533,2.73394 h 0.14625 c 0.30672,-0.89475 0.28263,-1.82852 0.0472,-2.76909 -0.43402,-1.73394 -1.56236,-3.49951 -2.58914,-5.1528 -0.30876,-0.49715 -0.35967,-0.90072 -0.25616,-1.25295 0.1035,-0.35226 0.36874,-0.65991 0.71572,-0.94142 0.69396,-0.56298 1.70245,-1.00872 2.30075,-1.54281 0.6748,-0.60239 0.94509,-1.26692 0.9924,-1.91503 0.0473,-0.64814 -0.12396,-1.27845 -0.31859,-1.82976 -0.45718,-1.29496 -1.25739,-2.24449 -1.84177,-3.09619 -0.0832,-0.12124 -0.16042,-0.24 -0.2333,-0.35787 z m 1.12282,0 c 0.0835,0.13783 0.17178,0.27629 0.26818,0.41678 0.59074,0.86095 1.37757,1.7963 1.82448,3.06219 0.19195,0.54371 0.35592,1.15554 0.31096,1.77142 -0.045,0.61589 -0.29463,1.23721 -0.94462,1.81744 -0.56717,0.50633 -1.57778,0.9565 -2.29547,1.53872 -0.35885,0.29113 -0.64768,0.61849 -0.7635,1.01263 -0.0289,0.0985 -0.0467,0.20097 -0.0519,0.30716 -0.0156,0.31851 0.0813,0.67171 0.32416,1.06273 1.02743,1.65435 2.14658,3.41313 2.57185,5.11206 0.2369,0.94641 0.26176,1.87136 -0.061,2.75679 h 0.14625 c 0.31513,-0.90174 0.29228,-1.84328 0.0548,-2.79196 -0.43402,-1.73392 -1.56236,-3.4998 -2.58914,-5.15308 -0.30876,-0.49716 -0.35996,-0.90072 -0.25646,-1.25296 0.10351,-0.35225 0.36874,-0.65961 0.71573,-0.94111 0.69396,-0.563 1.70245,-1.00903 2.30075,-1.54311 0.6748,-0.60238 0.94537,-1.26662 0.99269,-1.91476 0.0473,-0.64813 -0.12425,-1.27873 -0.31888,-1.83004 -0.45718,-1.29496 -1.25739,-2.2442 -1.84177,-3.0959 -0.0777,-0.11323 -0.15046,-0.22476 -0.21924,-0.335 z m 1.13631,0 c 0.0756,0.12236 0.15516,0.24532 0.24062,0.36988 0.59074,0.86097 1.37757,1.79632 1.82448,3.06219 0.19196,0.54372 0.35593,1.15525 0.31097,1.77115 -0.045,0.61588 -0.29464,1.23749 -0.94463,1.81772 -0.56718,0.50632 -1.57807,0.95648 -2.29576,1.53872 -0.35884,0.29111 -0.64739,0.61849 -0.7632,1.01263 -0.029,0.0985 -0.0467,0.20069 -0.0519,0.30686 -0.0156,0.31852 0.0813,0.672 0.32415,1.06303 1.02743,1.65434 2.14629,3.41312 2.57156,5.11206 0.24111,0.96319 0.26315,1.90401 -0.078,2.80368 h 0.14831 c 0.33258,-0.91594 0.31162,-1.87378 0.07,-2.83886 -0.43403,-1.73392 -1.56236,-3.49979 -2.58915,-5.15308 -0.30875,-0.49715 -0.35996,-0.90071 -0.25645,-1.25295 0.1035,-0.35226 0.36874,-0.65991 0.71572,-0.94141 0.69396,-0.56299 1.70275,-1.00873 2.30104,-1.54282 0.6748,-0.60238 0.94509,-1.2669 0.9924,-1.91503 0.0473,-0.64813 -0.12424,-1.27845 -0.31888,-1.82976 -0.45717,-1.29496 -1.25739,-2.24449 -1.84177,-3.09619 -0.0667,-0.0973 -0.12963,-0.1928 -0.18992,-0.28782 z m 1.14744,0 c 0.0638,0.10081 0.1308,0.20213 0.20106,0.30452 0.59074,0.86098 1.37757,1.79631 1.82448,3.0622 0.19195,0.54371 0.35592,1.15553 0.31096,1.77143 -0.045,0.61588 -0.29463,1.2372 -0.94462,1.81744 -0.56717,0.50631 -1.57778,0.95647 -2.29547,1.53871 -0.35885,0.29113 -0.64768,0.61878 -0.7635,1.01292 -0.029,0.0985 -0.0467,0.20069 -0.0519,0.30686 -0.0156,0.31851 0.0813,0.67172 0.32416,1.06274 1.02743,1.65435 2.14658,3.41311 2.57185,5.11207 0.24694,0.98651 0.26197,1.94964 -0.10551,2.86903 h 0.15094 c 0.35789,-0.93566 0.34199,-1.91615 0.0947,-2.90421 -0.43403,-1.73393 -1.56236,-3.49979 -2.58915,-5.1531 -0.30875,-0.49714 -0.35996,-0.9007 -0.25645,-1.25295 0.10351,-0.35224 0.36874,-0.65961 0.71572,-0.94111 0.69397,-0.56298 1.70275,-1.00902 2.30104,-1.54311 0.67481,-0.60238 0.94509,-1.26661 0.9924,-1.91474 0.0473,-0.64813 -0.12424,-1.27873 -0.31888,-1.83005 -0.45718,-1.29497 -1.2571,-2.24421 -1.84148,-3.0959 -0.0516,-0.0753 -0.0992,-0.14887 -0.14713,-0.22275 z m 1.15799,0 c 0.0489,0.0754 0.0977,0.15048 0.15007,0.22685 0.59074,0.86096 1.37756,1.79661 1.82447,3.0625 0.19195,0.5437 0.35622,1.15524 0.31126,1.77113 -0.045,0.61588 -0.29463,1.23749 -0.94462,1.81773 -0.56718,0.5063 -1.57807,0.95647 -2.29577,1.53872 -0.35884,0.29112 -0.64738,0.61848 -0.7632,1.01262 -0.029,0.0985 -0.0467,0.20069 -0.0519,0.30686 -0.0156,0.31852 0.081,0.67202 0.32387,1.06303 1.02743,1.65436 2.14657,3.41282 2.57185,5.11177 0.25391,1.01434 0.26228,2.00391 -0.13804,2.94671 h 0.15123 c 0.38926,-0.95901 0.38108,-1.96616 0.12691,-2.98158 -0.43403,-1.73393 -1.56236,-3.49981 -2.58915,-5.1531 -0.30875,-0.49715 -0.35967,-0.9007 -0.25616,-1.25295 0.10351,-0.35224 0.36874,-0.65961 0.71572,-0.94111 0.69396,-0.56299 1.70245,-1.00901 2.30075,-1.54311 0.6748,-0.60238 0.94509,-1.26691 0.9924,-1.91504 0.0473,-0.64813 -0.12424,-1.27845 -0.31888,-1.82976 -0.45717,-1.29496 -1.2571,-2.2442 -1.84148,-3.09589 -0.0337,-0.0491 -0.0637,-0.0969 -0.0958,-0.14538 z m 1.16445,0 c 0.0309,0.0465 0.0598,0.0926 0.092,0.13951 0.59073,0.86097 1.37756,1.79631 1.82447,3.0622 0.19196,0.5437 0.35593,1.15553 0.31097,1.77143 -0.045,0.61588 -0.29463,1.2372 -0.94462,1.81744 -0.56718,0.50631 -1.57808,0.95648 -2.29577,1.53872 -0.35884,0.2911 -0.64739,0.61848 -0.7632,1.01261 -0.029,0.0985 -0.0467,0.20099 -0.0519,0.30716 -0.0156,0.31852 0.0813,0.67172 0.32415,1.06274 1.02743,1.65435 2.1463,3.41312 2.57157,5.11205 0.26174,1.04566 0.26433,2.06522 -0.17469,3.03406 h 0.15124 c 0.4265,-0.98513 0.42576,-2.02282 0.16384,-3.06922 -0.43404,-1.73393 -1.56237,-3.49979 -2.58915,-5.15309 -0.30876,-0.49716 -0.35996,-0.90042 -0.25645,-1.25266 0.1035,-0.35224 0.36873,-0.65991 0.71572,-0.94141 0.69396,-0.56298 1.70245,-1.00873 2.30075,-1.54281 0.6748,-0.60239 0.94538,-1.26692 0.99269,-1.91504 0.0473,-0.64813 -0.12425,-1.27873 -0.31888,-1.83004 -0.45718,-1.29497 -1.25739,-2.24422 -1.84177,-3.09591 -0.0134,-0.0195 -0.0249,-0.0383 -0.0381,-0.0577 z m 1.16913,0 c 0.01,0.0144 0.0183,0.0284 0.0281,0.0428 0.59074,0.86096 1.37756,1.79631 1.82447,3.06218 0.19196,0.54373 0.35593,1.15525 0.31097,1.77115 -0.045,0.61588 -0.29463,1.2375 -0.94462,1.81773 -0.56718,0.5063 -1.57778,0.95647 -2.29547,1.53873 -0.35885,0.2911 -0.64769,0.61848 -0.7635,1.01261 -0.029,0.0985 -0.0467,0.20099 -0.0519,0.30716 -0.0157,0.31851 0.0813,0.67171 0.32415,1.06274 1.02743,1.65433 2.14658,3.41311 2.57186,5.11205 0.27047,1.08052 0.26402,2.13312 -0.2204,3.13078 h 0.15651 c 0.46961,-1.01371 0.47447,-2.08538 0.20398,-3.16596 -0.43403,-1.73391 -1.56235,-3.49977 -2.58914,-5.15308 -0.30875,-0.49715 -0.35967,-0.90071 -0.25616,-1.25295 0.10351,-0.35226 0.36874,-0.65961 0.71572,-0.94111 0.69396,-0.56298 1.70246,-1.00903 2.30075,-1.54311 0.6748,-0.6024 0.94509,-1.26693 0.9924,-1.91504 0.0473,-0.64813 -0.12424,-1.27845 -0.31888,-1.82976 -0.45042,-1.27584 -1.23173,-2.21489 -1.81364,-3.05692 z m 1.17704,0 c 0.58557,0.84429 1.3441,1.76391 1.78052,3.00006 0.19195,0.54372 0.35562,1.15525 0.31067,1.77114 -0.045,0.61588 -0.29463,1.2375 -0.94462,1.81773 -0.56718,0.50632 -1.57778,0.95648 -2.29548,1.53871 -0.35884,0.29112 -0.64767,0.6185 -0.76349,1.01264 -0.0289,0.0985 -0.0467,0.20069 -0.0519,0.30685 -0.0156,0.31851 0.0813,0.67201 0.32415,1.06304 1.02744,1.65434 2.14659,3.41282 2.57186,5.11175 0.28001,1.11865 0.26192,2.20721 -0.27492,3.236 h 0.15768 c 0.51958,-1.0447 0.5375,-2.15308 0.25763,-3.27116 -0.43403,-1.73393 -1.56265,-3.49949 -2.58944,-5.15279 -0.30875,-0.49716 -0.35966,-0.90071 -0.25616,-1.25296 0.10351,-0.35225 0.36874,-0.6599 0.71572,-0.9414 0.69397,-0.56299 1.70245,-1.00873 2.30075,-1.54282 0.6748,-0.60239 0.94508,-1.26692 0.9924,-1.91504 0.0473,-0.64813 -0.12396,-1.27845 -0.31859,-1.82976 -0.43225,-1.22433 -1.166,-2.13597 -1.73919,-2.95199 z m 1.18379,0 c 0.57382,0.81453 1.28298,1.70516 1.7005,2.88781 0.19195,0.54372 0.35593,1.15525 0.31097,1.77114 -0.045,0.61589 -0.29464,1.23749 -0.94463,1.81773 -0.56718,0.50631 -1.57778,0.9562 -2.29547,1.53842 -0.35885,0.29113 -0.64768,0.61877 -0.7635,1.01291 -0.029,0.0985 -0.0467,0.2007 -0.0519,0.30688 -0.0156,0.3185 0.0813,0.67199 0.32416,1.06302 1.02743,1.65435 2.14658,3.41282 2.57185,5.11177 0.2902,1.1593 0.26277,2.28667 -0.33324,3.34824 h 0.15798 c 0.57605,-1.07738 0.60528,-2.2252 0.31536,-3.38341 -0.43403,-1.73392 -1.56236,-3.49978 -2.58915,-5.15309 -0.30875,-0.49715 -0.35966,-0.90041 -0.25616,-1.25266 0.10351,-0.35224 0.36874,-0.6599 0.71573,-0.9414 0.69396,-0.56299 1.70245,-1.00903 2.30074,-1.54311 0.67481,-0.60239 0.94509,-1.26663 0.9924,-1.91476 0.0473,-0.64811 -0.12425,-1.27873 -0.31888,-1.83004 -0.41283,-1.16934 -1.09843,-2.05116 -1.65917,-2.83945 z m 1.19052,0 c 0.55752,0.78212 1.21614,1.64077 1.61287,2.76472 0.0578,0.16386 0.11221,0.33432 0.16003,0.5088 v -0.48361 c -0.008,-0.0239 -0.0154,-0.0496 -0.0237,-0.0733 -0.39151,-1.10911 -1.02789,-1.95876 -1.57154,-2.71664 z m 1.19639,0 c 0.18915,0.26361 0.38215,0.53458 0.57651,0.82505 v -0.25909 c -0.13578,-0.19708 -0.2673,-0.38304 -0.39889,-0.56596 z m -24.00954,1.37283 v 0.35669 c 0.0455,0.10932 0.0895,0.22017 0.12984,0.33471 0.19189,0.54423 0.35572,1.15643 0.31067,1.77289 -0.0306,0.41889 -0.15947,0.84012 -0.44051,1.24944 v 0.24473 c 0.37943,-0.48066 0.54841,-0.98683 0.58471,-1.48361 0.0474,-0.64867 -0.12403,-1.27969 -0.31858,-1.83151 -0.0792,-0.22466 -0.16923,-0.43817 -0.26613,-0.64334 z m 24.58605,3.86526 c -0.14183,0.38053 -0.39058,0.7564 -0.79369,1.11637 -0.56716,0.50646 -1.57779,0.9569 -2.29547,1.5393 -0.35883,0.29121 -0.6474,0.61868 -0.7632,1.01291 -0.029,0.0985 -0.0466,0.20108 -0.0519,0.30717 -0.0155,0.31851 0.0814,0.67203 0.32416,1.06303 1.02748,1.65474 2.14653,3.41386 2.57185,5.11322 0.30112,1.20312 0.25833,2.37127 -0.40475,3.46783 h 0.16588 c 0.63954,-1.11183 0.67959,-2.30185 0.37897,-3.503 -0.43408,-1.73435 -1.56261,-3.50056 -2.58944,-5.15425 -0.30878,-0.49728 -0.35966,-0.9009 -0.25616,-1.25326 0.1035,-0.35234 0.36875,-0.6601 0.71572,-0.94169 0.69395,-0.56315 1.70247,-1.00916 2.30075,-1.5434 0.31571,-0.28192 0.54002,-0.57761 0.69726,-0.87869 z m 0,1.22716 c -0.57963,0.41399 -1.38511,0.81014 -1.98714,1.29897 -0.35882,0.29135 -0.64743,0.61882 -0.76321,1.0132 -0.0289,0.0986 -0.0467,0.20092 -0.0519,0.30717 -0.0156,0.31871 0.0813,0.67235 0.32416,1.06362 0.9593,1.5454 1.99808,3.1817 2.47807,4.77558 v -0.45867 c -0.52957,-1.4865 -1.47864,-2.98089 -2.35526,-4.39312 -0.30881,-0.49748 -0.35994,-0.90131 -0.25646,-1.25383 0.10349,-0.35253 0.36876,-0.66027 0.71573,-0.94198 0.55533,-0.45093 1.30921,-0.8272 1.89599,-1.23333 z m 0,0.56097 c -0.31042,0.19007 -0.61824,0.38883 -0.88542,0.60581 -0.35882,0.29142 -0.64744,0.61904 -0.76321,1.01351 -0.029,0.0986 -0.0467,0.2009 -0.0519,0.30716 -0.0156,0.31876 0.0816,0.67257 0.32445,1.0639 0.46523,0.74959 0.94616,1.52097 1.37605,2.29812 v -0.29867 c -0.39931,-0.70398 -0.83383,-1.39941 -1.25354,-2.07565 -0.30882,-0.49757 -0.35964,-0.90152 -0.25616,-1.25412 0.10348,-0.3526 0.36848,-0.6605 0.71543,-0.94228 0.23699,-0.19249 0.51276,-0.36947 0.79427,-0.5428 z m 0,0.6615 c -0.25596,0.243 -0.45589,0.51192 -0.5472,0.823 -0.0289,0.0986 -0.0467,0.2009 -0.0519,0.30715 -0.0156,0.31876 0.0813,0.6726 0.32416,1.06392 0.091,0.1467 0.18297,0.29785 0.27492,0.44607 v -0.27578 c -0.0506,-0.0815 -0.10187,-0.16555 -0.15212,-0.2465 -0.30881,-0.49754 -0.35993,-0.90155 -0.25645,-1.25412 0.07,-0.2385 0.21529,-0.45616 0.40857,-0.65946 z m -24.58605,2.07243 v 0.30042 c 7.4e-4,10e-4 0.001,0.002 0.002,0.003 1.02739,1.65466 2.14662,3.41371 2.57186,5.11295 0.32063,1.28126 0.25381,2.52333 -0.54017,3.6809 h 0.16882 c 0.76397,-1.17216 0.83133,-2.43779 0.51144,-3.71608 -0.43398,-1.73422 -1.5624,-3.50036 -2.58914,-5.15397 -0.0487,-0.0784 -0.0886,-0.15383 -0.12486,-0.22773 z m 0,1.663 v 0.28517 c 0.63916,1.10022 1.20146,2.2192 1.47512,3.31366 0.33474,1.33875 0.24434,2.63442 -0.65301,3.83594 h 0.17615 c 0.86197,-1.2153 0.95073,-2.53593 0.61695,-3.87082 -0.29722,-1.18869 -0.92215,-2.39172 -1.61521,-3.56395 z m 0,1.92881 v 0.37485 c 0.15335,0.38016 0.28292,0.75937 0.37691,1.13543 0.29673,1.18721 0.26005,2.34054 -0.37691,3.42446 v 0.26759 c 0.76934,-1.17532 0.83781,-2.44489 0.5173,-3.72721 -0.12254,-0.49027 -0.30189,-0.98301 -0.5173,-1.47512 z m 24.58605,4.75596 c -0.0991,0.25344 -0.22761,0.50362 -0.38805,0.75 h 0.16618 c 0.082,-0.13248 0.15689,-0.26597 0.22187,-0.40064 z"
           id="path7879" />
        <g
           id="flowRoot7887"
           style="font-style:normal;font-variant:normal;font-weight:normal;font-stretch:normal;font-size:40px;line-height:125%;font-family:'Javanese Text';-inkscape-font-specification:'Javanese Text';letter-spacing:0px;word-spacing:4.26000023px;fill:#000000;fill-opacity:1;stroke:none;stroke-width:1px;stroke-linecap:butt;stroke-linejoin:miter;stroke-opacity:1"
           transform="matrix(0.19400167,0,0,0.19400167,-404.73905,135.8756)"
           aria-label="1234XYZ">
          <path
             id="path11086"
             style="font-style:normal;font-variant:normal;font-weight:normal;font-stretch:normal;font-family:'Microsoft Himalaya';-inkscape-font-specification:'Microsoft Himalaya'"
             d="m -1172.0664,955.84785 4.3164,-2.10938 h 0.4297 v 14.98047 q 0,0.78125 0.02,1.23047 0.019,0.42969 0.098,0.66406 0.078,0.23438 0.1953,0.33204 0.1172,0.0976 0.332,0.19531 0.3906,0.21484 1.6016,0.21484 v 0.48828 h -6.6797 v -0.48828 q 0.6445,0 1.0351,-0.0586 0.3907,-0.0586 0.6055,-0.13672 0.2149,-0.0977 0.3125,-0.23438 0.1172,-0.13671 0.1758,-0.29296 0.1367,-0.29297 0.1367,-1.91407 v -9.58984 q 0,-1.13281 -0.059,-1.77734 -0.039,-0.66407 -0.1562,-0.97657 -0.1172,-0.3125 -0.3125,-0.39062 -0.1953,-0.0977 -0.5078,-0.0977 -0.5469,0 -1.3477,0.35156 z" />
          <path
             id="path11088"
             style="font-style:normal;font-variant:normal;font-weight:normal;font-stretch:normal;font-family:'Microsoft Himalaya';-inkscape-font-specification:'Microsoft Himalaya'"
             d="m -1149.4883,968.42597 -1.25,3.41797 h -10.4687 v -0.48828 q 4.5507,-4.3164 6.5039,-6.875 1.8945,-2.65625 1.8945,-4.88281 0,-0.83984 -0.293,-1.54297 -0.2734,-0.72266 -0.7617,-1.23047 -0.4687,-0.50781 -1.1133,-0.80078 -0.625,-0.29297 -1.3476,-0.29297 -1.3086,0 -2.3438,0.76172 -1.0351,0.76172 -1.5429,2.24609 h -0.4688 q 0.332,-2.4414 1.6602,-3.71093 1.3476,-1.28907 3.3984,-1.28907 1.0742,0 1.9922,0.39063 0.9375,0.37109 1.6016,1.01562 0.6835,0.64454 1.0742,1.48438 0.3906,0.83984 0.3906,1.75781 0,1.34766 -0.4883,2.48047 -0.4687,1.13281 -0.9765,1.85547 -0.4883,0.70312 -1.4258,1.89453 -1.7774,1.99219 -2.8516,3.125 -1.0547,1.13281 -2.1094,2.12891 h 4.6289 q 0.8789,0 1.4844,-0.0391 0.6055,-0.0391 1.0156,-0.17578 0.4297,-0.15625 0.7227,-0.44922 0.293,-0.29296 0.5859,-0.78125 z" />
          <path
             id="path11090"
             style="font-style:normal;font-variant:normal;font-weight:normal;font-stretch:normal;font-family:'Microsoft Himalaya';-inkscape-font-specification:'Microsoft Himalaya'"
             d="m -1146.9688,957.46894 q 0.7422,-1.79687 1.8946,-2.7539 1.1719,-0.97657 2.9101,-0.97657 0.8985,0 1.6602,0.29297 0.7617,0.29297 1.3086,0.80078 0.5469,0.48829 0.8398,1.15235 0.3125,0.64453 0.3125,1.34765 0,1.95313 -2.4218,4.00391 1.6601,0.64453 2.4804,1.83594 0.8203,1.17187 0.8203,2.79297 0,1.34765 -0.5078,2.48047 -0.4883,1.13281 -1.4062,1.97265 -0.918,0.82031 -2.2071,1.28906 -1.289,0.44922 -2.8711,0.44922 -0.9179,0 -1.5234,-0.13672 -0.5859,-0.11718 -0.9375,-0.3125 -0.3516,-0.21484 -0.4883,-0.44921 -0.1367,-0.25391 -0.1367,-0.50782 0,-0.46875 0.3516,-0.70312 0.3711,-0.25391 0.8789,-0.25391 0.1172,0 0.2148,0.0195 0.098,0.0195 0.2344,0.0781 0.1562,0.0586 0.3906,0.17578 0.2344,0.11719 0.6446,0.33203 0.4687,0.25391 0.7617,0.39063 0.2929,0.11718 0.5078,0.17578 0.2148,0.0586 0.3906,0.0586 0.1953,0 0.4688,0 0.664,0 1.25,-0.27344 0.6054,-0.29297 1.0546,-0.76172 0.4688,-0.48828 0.7227,-1.11328 0.2734,-0.64453 0.2734,-1.32812 0,-0.42969 -0.098,-0.87891 -0.098,-0.46875 -0.2735,-0.89844 -0.1562,-0.42968 -0.371,-0.78125 -0.2149,-0.35156 -0.4688,-0.58593 -0.2734,-0.25391 -0.6836,-0.48828 -0.4101,-0.25391 -0.8789,-0.44922 -0.4687,-0.19532 -0.9766,-0.3125 -0.5078,-0.11719 -0.9961,-0.11719 h -0.4296 v -0.39063 q 0.9961,-0.13671 1.7578,-0.52734 0.7617,-0.41016 1.2695,-0.95703 0.5078,-0.56641 0.7617,-1.25 0.2735,-0.68359 0.2735,-1.38672 0,-0.66406 -0.2344,-1.21094 -0.2344,-0.5664 -0.625,-0.95703 -0.3906,-0.41015 -0.9375,-0.625 -0.5469,-0.21484 -1.1524,-0.21484 -2.0312,0 -3.3789,2.16797 z" />
          <path
             id="path11092"
             style="font-style:normal;font-variant:normal;font-weight:normal;font-stretch:normal;font-family:'Microsoft Himalaya';-inkscape-font-specification:'Microsoft Himalaya'"
             d="m -1122.418,965.30097 v 1.85547 h -2.3828 v 4.6875 h -2.168 v -4.6875 h -7.5195 v -1.67968 l 8.2422,-11.73829 h 1.4453 v 11.5625 z m -4.5508,0 v -8.80859 l -6.2304,8.80859 z" />
          <path
             id="path11094"
             style="font-style:normal;font-variant:normal;font-weight:normal;font-stretch:normal;font-family:'Microsoft Himalaya';-inkscape-font-specification:'Microsoft Himalaya'"
             d="m -1110.5234,962.01972 3.8086,5.6836 q 0.8203,1.21094 1.3476,1.93359 0.5469,0.70313 0.9961,1.07422 0.4688,0.37109 0.8984,0.50781 0.4493,0.11719 1.0547,0.13672 v 0.48828 h -7.6172 v -0.48828 q 1.0743,-0.0195 1.4063,-0.33203 0.3516,-0.3125 0.3516,-0.87891 0,-0.0977 -0.02,-0.17578 -0.019,-0.0976 -0.1172,-0.2539 -0.078,-0.17578 -0.2539,-0.42969 -0.1758,-0.25391 -0.4492,-0.68359 l -3.0078,-4.55079 -3.7305,4.76563 q -0.3125,0.39062 -0.4883,0.625 -0.1562,0.23437 -0.2343,0.39062 -0.078,0.15625 -0.098,0.27344 0,0.11719 0,0.25391 0,0.41015 0.3516,0.68359 0.3515,0.27344 1.3476,0.3125 v 0.48828 h -6.289 v -0.48828 q 0.6445,-0.0391 1.2109,-0.2539 0.5664,-0.21485 1.0742,-0.56641 0.5274,-0.37109 1.0352,-0.89844 0.5078,-0.54687 1.0547,-1.23047 l 4.1797,-5.29297 -3.4961,-5.11718 q -0.7227,-1.05469 -1.3086,-1.69922 -0.5664,-0.66406 -1.1133,-1.01563 -0.5274,-0.37109 -1.0742,-0.50781 -0.5469,-0.15625 -1.211,-0.19531 v -0.48828 h 8.2032 v 0.48828 q -1.0352,0.0391 -1.4258,0.35156 -0.3906,0.29297 -0.3906,0.66406 0,0.48828 0.625,1.40625 l 2.7343,4.08203 3.1446,-4.0039 q 0.2929,-0.3711 0.4492,-0.58594 0.1562,-0.23437 0.2344,-0.37109 0.078,-0.15625 0.098,-0.27344 0.019,-0.11719 0.019,-0.27344 0,-0.5664 -0.4296,-0.76172 -0.4102,-0.19531 -1.4649,-0.23437 v -0.48828 h 6.2891 v 0.48828 q -0.8985,0.0586 -1.4649,0.33203 -0.5468,0.27344 -1.0547,0.72266 -0.5468,0.46875 -1.6601,1.875 z" />
          <path
             id="path11096"
             style="font-style:normal;font-variant:normal;font-weight:normal;font-stretch:normal;font-family:'Microsoft Himalaya';-inkscape-font-specification:'Microsoft Himalaya'"
             d="m -1089.3125,954.09004 h 6.1914 v 0.48828 h -0.3516 q -0.7421,0 -1.6015,0.68359 -0.8594,0.66406 -1.8946,2.32422 l -4.2773,6.73828 v 4.45313 q 0,0.89843 0.1172,1.42578 0.1367,0.50781 0.3711,0.76172 0.2539,0.2539 0.6055,0.33203 0.371,0.0586 0.8398,0.0586 h 0.5664 v 0.48828 h -7.5391 v -0.48828 h 0.6446 q 0.4687,0 0.8203,-0.0781 0.3515,-0.0781 0.5859,-0.33203 0.2344,-0.27344 0.3516,-0.78125 0.1172,-0.50782 0.1172,-1.38672 v -4.21875 l -4.8633,-7.42188 q -0.4492,-0.66406 -0.7422,-1.05469 -0.2734,-0.41015 -0.4297,-0.58593 -0.078,-0.0781 -0.2734,-0.23438 -0.1758,-0.15625 -0.4492,-0.29297 -0.2735,-0.15625 -0.6055,-0.27343 -0.332,-0.11719 -0.7031,-0.11719 v -0.48828 h 7.5781 v 0.48828 h -0.3906 q -0.293,0 -0.586,0.0781 -0.2929,0.0586 -0.5273,0.19532 -0.2344,0.13671 -0.3906,0.37109 -0.1368,0.21484 -0.1368,0.50781 -0.019,0.23438 0.1954,0.66406 0.2148,0.41016 0.6054,1.03516 l 3.6914,5.72266 3.4961,-5.46875 q 0.7422,-1.19141 0.7813,-1.83594 -0.039,-0.27344 -0.1367,-0.50781 -0.078,-0.23438 -0.293,-0.39063 -0.1953,-0.17578 -0.5274,-0.27344 -0.332,-0.0977 -0.8398,-0.0977 z" />
          <path
             id="path11098"
             style="font-style:normal;font-variant:normal;font-weight:normal;font-stretch:normal;font-family:'Microsoft Himalaya';-inkscape-font-specification:'Microsoft Himalaya'"
             d="m -1067.3008,954.09004 -11.6601,16.67968 h 7.2851 q 0.8399,0 1.4649,-0.15625 0.625,-0.15625 1.1132,-0.5664 0.4883,-0.41016 0.8594,-1.13281 0.3711,-0.72266 0.7227,-1.85547 l 0.4297,0.0781 -0.8399,4.70703 h -14.4531 v -0.48828 l 11.3867,-16.1914 h -5.6641 q -1.0742,0 -1.7187,0.17578 -0.6445,0.15625 -1.0156,0.54687 -0.3711,0.39063 -0.5664,1.05469 -0.1758,0.64453 -0.3321,1.60156 h -0.5078 l 0.3711,-4.45312 z" />
        </g>
        <g
           id="flowRoot7895"
           style="font-style:normal;font-variant:normal;font-weight:normal;font-stretch:normal;font-size:40px;line-height:125%;font-family:'Javanese Text';-inkscape-font-specification:'Javanese Text';letter-spacing:0px;word-spacing:4.26000023px;fill:#000000;fill-opacity:1;stroke:none;stroke-width:1px;stroke-linecap:butt;stroke-linejoin:miter;stroke-opacity:1"
           transform="matrix(0.13068417,0,0,0.13068417,-471.87064,202.85947)"
           aria-label="BEV">
          <path
             id="path11101"
             style="font-style:normal;font-variant:normal;font-weight:normal;font-stretch:normal;font-family:'Microsoft Himalaya';-inkscape-font-specification:'Microsoft Himalaya'"
             d="m -1162.8281,962.78144 q 1.0742,0.23438 1.8359,0.64453 0.7813,0.41016 1.25,0.95704 0.4883,0.54687 0.7031,1.21093 0.2344,0.66407 0.2344,1.38672 0,0.66406 -0.2148,1.3086 -0.2149,0.64453 -0.625,1.23046 -0.3907,0.56641 -0.9766,1.03516 -0.5859,0.44922 -1.3281,0.74219 -1.4063,0.54687 -4.4336,0.54687 h -8.3789 v -0.48828 h 0.664 q 0.4493,0 0.8008,-0.0781 0.3516,-0.0781 0.586,-0.35157 0.2539,-0.27343 0.3711,-0.80078 0.1367,-0.52734 0.1367,-1.42578 v -11.46484 q 0,-0.9375 -0.1367,-1.46485 -0.1368,-0.52734 -0.3907,-0.78125 -0.2539,-0.27343 -0.6054,-0.33203 -0.3516,-0.0781 -0.7618,-0.0781 h -0.664 v -0.48828 h 7.6562 q 3.6914,0 5.586,1.25 1.914,1.25 1.914,3.49609 0,1.34766 -0.8203,2.40234 -0.8203,1.03516 -2.4023,1.54297 z m -6.8555,7.77344 q 1.4844,0.35156 2.9883,0.35156 1.1914,0 2.1094,-0.29297 0.9179,-0.29296 1.5234,-0.78125 0.6055,-0.50781 0.918,-1.17187 0.3125,-0.68359 0.3125,-1.44531 0,-0.83985 -0.3321,-1.58203 -0.332,-0.74219 -1.0351,-1.28907 -0.6836,-0.54687 -1.7383,-0.85937 -1.0352,-0.3125 -2.4414,-0.3125 -0.8203,0 -1.3867,0.0195 -0.5664,0.0195 -0.918,0.0977 z m 0,-8.47656 q 0.4883,0.0977 1.0938,0.15625 0.625,0.0391 1.3671,0.0391 2.5977,0 3.7305,-0.9375 1.1328,-0.9375 1.1328,-2.59766 0,-0.76171 -0.332,-1.44531 -0.3125,-0.70312 -0.9375,-1.21094 -0.625,-0.50781 -1.5625,-0.80078 -0.918,-0.3125 -2.1484,-0.3125 -1.3282,0 -2.3438,0.29297 z" />
          <path
             id="path11103"
             style="font-style:normal;font-variant:normal;font-weight:normal;font-stretch:normal;font-family:'Microsoft Himalaya';-inkscape-font-specification:'Microsoft Himalaya'"
             d="m -1151.7148,955.0666 v 7.01172 h 3.8867 q 0.8593,0 1.3867,-0.15625 0.5273,-0.15625 0.8203,-0.46875 0.3125,-0.3125 0.4297,-0.80078 0.1172,-0.48828 0.1562,-1.15235 h 0.4883 v 6.17188 h -0.4883 q -0.098,-0.76172 -0.2343,-1.26953 -0.1172,-0.50782 -0.4102,-0.80078 -0.2734,-0.3125 -0.7812,-0.42969 -0.5079,-0.13672 -1.3672,-0.13672 h -3.8867 v 5.85937 q 0,0.66407 0.019,1.05469 0.02,0.39063 0.1562,0.60547 0.1368,0.19531 0.4297,0.25391 0.293,0.0586 0.8594,0.0586 h 3.0078 q 0.7617,0 1.2891,-0.0391 0.5273,-0.0391 0.8984,-0.15625 0.3906,-0.11719 0.6836,-0.3125 0.293,-0.21485 0.625,-0.52735 0.7813,-0.76171 1.6602,-2.4414 h 0.5273 l -1.543,4.45312 h -13.6718 v -0.48828 h 0.625 q 0.2539,0 0.5273,-0.0586 0.2734,-0.0586 0.5078,-0.15625 0.2539,-0.11719 0.4492,-0.29297 0.1953,-0.17578 0.2735,-0.41016 0.1562,-0.42968 0.1562,-1.71875 v -11.52343 q 0,-1.69922 -0.332,-2.08985 -0.4688,-0.52734 -1.582,-0.52734 h -0.625 v -0.48828 h 13.6718 v 3.88672 h -0.3125 q -0.1953,-0.95704 -0.4297,-1.52344 -0.2148,-0.58594 -0.5859,-0.89844 -0.3711,-0.3125 -0.957,-0.39062 -0.5664,-0.0977 -1.4649,-0.0977 z" />
          <path
             id="path11105"
             style="font-style:normal;font-variant:normal;font-weight:normal;font-stretch:normal;font-family:'Microsoft Himalaya';-inkscape-font-specification:'Microsoft Himalaya'"
             d="m -1121.8906,954.09004 v 0.48828 q -0.5664,0.0977 -0.9571,0.3125 -0.3906,0.19531 -0.7031,0.50781 -0.293,0.3125 -0.5273,0.76172 -0.2344,0.42969 -0.4688,0.99609 l -6.1914,15.09766 h -0.4883 l -6.6406,-15.29297 q -0.293,-0.72266 -0.5469,-1.15234 -0.2343,-0.44922 -0.5273,-0.70313 -0.293,-0.2539 -0.7031,-0.35156 -0.4102,-0.11719 -1.0352,-0.17578 v -0.48828 h 7.2461 v 0.48828 q -0.625,0.0586 -1.0156,0.17578 -0.3906,0.0977 -0.6055,0.25391 -0.1953,0.15625 -0.2734,0.35156 -0.059,0.17578 -0.059,0.41015 0,0.66407 0.6054,2.05079 l 4.5118,10.39062 4.1797,-10.27344 q 0.625,-1.52343 0.625,-2.08984 0,-0.41016 -0.4297,-0.76172 -0.4297,-0.37109 -1.4649,-0.50781 v -0.48828 z" />
        </g>
      </g>
    </g>
  </g>
</svg>
